<?xml version="1.0" encoding="UTF-8"?>
<!-- Generator: https://ezgif.com/webp-to-svg -->
<svg version="1.1" xmlns="http://www.w3.org/2000/svg" width="800" height="450">
<path d="M0 0 C264 0 528 0 800 0 C800 148.5 800 297 800 450 C536 450 272 450 0 450 C0 301.5 0 153 0 0 Z " fill="#001831" transform="translate(0,0)"/>
<path d="M0 0 C2.97 2.61 4.65 5.64 6.58 9.07 C6.92 9.66 7.26 10.25 7.6 10.86 C8.68 12.76 9.74 14.66 10.81 16.56 C12.89 20.25 14.97 23.93 17.07 27.6 C18.3 29.76 19.52 31.92 20.73 34.09 C21.51 35.45 21.51 35.45 22.3 36.83 C22.74 37.62 23.19 38.4 23.65 39.21 C25 41.35 25 41.35 28.38 42.12 C29.24 42.08 30.11 42.04 31 42 C31 42.66 31 43.32 31 44 C32.65 44 34.3 44 36 44 C36 44.99 36 45.98 36 47 C56.79 47 77.58 47 99 47 C99 87.59 99 128.18 99 170 C95.28 171.86 91.06 171.45 87 171 C84.87 170.14 84.87 170.14 82.81 169.06 C76.65 165.91 69.78 166.18 63 166 C63 165.34 63 164.68 63 164 C61.68 164 60.36 164 59 164 C59 163.34 59 162.68 59 162 C61.31 161.67 63.62 161.34 66 161 C65.43 152.91 62.84 145.38 60.44 137.69 C59.8 135.63 59.16 133.58 58.53 131.52 C57.96 129.67 57.39 127.82 56.81 125.97 C56 123 56 123 56 120 C55.34 120 54.68 120 54 120 C51.2 113.99 50.07 108.38 49.04 101.82 C47.71 94.72 45.22 87.86 43 81 C42.83 81.56 42.66 82.12 42.48 82.69 C40.67 88.63 38.86 94.58 37.04 100.52 C36.35 102.79 35.66 105.07 34.96 107.34 C28.15 129.69 28.15 129.69 25.22 138.47 C24.85 139.6 24.47 140.73 24.08 141.9 C23.43 143.84 22.77 145.78 22.08 147.72 C19.84 154.39 18.48 161.13 21.13 167.88 C21.6 168.58 22.08 169.28 22.56 170 C24 172.19 24 172.19 25 174 C24.67 174.66 24.34 175.32 24 176 C22.02 173.03 20.04 170.06 18 167 C17.79 168.4 17.59 169.81 17.38 171.25 C17.2 172.43 17.2 172.43 17.02 173.64 C17 176.36 17.53 177.73 19 180 C19.66 180.33 20.32 180.66 21 181 C20.67 181.99 20.34 182.98 20 184 C19.01 184 18.02 184 17 184 C17 183.01 17 182.02 17 181 C16.34 181 15.68 181 15 181 C15 182.32 15 183.64 15 185 C14.34 185.33 13.68 185.66 13 186 C12.09 188.11 12.09 188.11 11.38 190.56 C10.98 191.8 10.98 191.8 10.59 193.07 C10.3 194.02 10.3 194.02 10 195 C8.35 195 6.7 195 5 195 C4.67 193.02 4.34 191.04 4 189 C3.01 189 2.02 189 1 189 C1 188.34 1 187.68 1 187 C0.01 186.67 -0.98 186.34 -2 186 C-3 184.33 -4 182.67 -5 181 C-5.99 180.67 -6.98 180.34 -8 180 C-9.17 178.04 -9.17 178.04 -10.19 175.62 C-10.53 174.83 -10.88 174.04 -11.23 173.23 C-12 171 -12 171 -12 168 C-15.62 166.79 -18.93 166.86 -22.7 166.87 C-23.44 166.87 -24.19 166.87 -24.96 166.86 C-26.54 166.86 -28.12 166.87 -29.7 166.87 C-32.12 166.87 -34.55 166.87 -36.97 166.86 C-38.51 166.86 -40.04 166.87 -41.57 166.87 C-42.3 166.87 -43.03 166.86 -43.78 166.86 C-47.18 166.57 -47.18 166.57 -50 168 C-52.48 168.21 -54.95 168.38 -57.44 168.5 C-62.37 168.58 -62.37 168.58 -67 170 C-66.67 167.03 -66.34 164.06 -66 161 C-61.95 160.02 -58.16 159.92 -54 160 C-53.5 157.03 -53.5 157.03 -53 154 C-53.66 154 -54.32 154 -55 154 C-57.31 149.95 -57.76 145.92 -58.44 141.36 C-58.72 140.19 -58.72 140.19 -59 139 C-59.66 138.67 -60.32 138.34 -61 138 C-61 138.99 -61 139.98 -61 141 C-61.99 141 -62.98 141 -64 141 C-64.18 142.44 -64.18 142.44 -64.37 143.91 C-65.02 148.47 -66.04 152.94 -67.06 157.44 C-67.25 158.26 -67.44 159.09 -67.63 159.94 C-68.08 161.96 -68.54 163.98 -69 166 C-69.66 166 -70.32 166 -71 166 C-70.58 158.37 -68.49 151.53 -66.28 144.27 C-64.65 138.89 -63.29 133.46 -62 128 C-59 129 -59 129 -57.28 132.14 C-56.65 133.53 -56.03 134.92 -55.43 136.32 C-55.1 137.05 -54.77 137.78 -54.43 138.53 C-53.38 140.87 -52.35 143.22 -51.31 145.56 C-50.6 147.15 -49.9 148.73 -49.19 150.32 C-47.45 154.21 -45.72 158.1 -44 162 C-42.65 161.97 -42.65 161.97 -41.27 161.95 C-37.89 161.91 -34.52 161.91 -31.14 161.93 C-29.68 161.94 -28.23 161.92 -26.77 161.89 C-14.69 161.67 -14.69 161.67 -10.53 164.95 C-8.75 167.23 -7.35 169.45 -6 172 C-5.2 173.2 -4.39 174.38 -3.56 175.56 C-3.05 176.37 -2.53 177.17 -2 178 C-2.28 176.52 -2.58 175.04 -2.88 173.56 C-3.04 172.74 -3.2 171.92 -3.37 171.07 C-3.68 170.04 -3.68 170.04 -4 169 C-4.66 168.67 -5.32 168.34 -6 168 C-5.4 168.08 -4.79 168.17 -4.17 168.25 C-2.97 168.41 -2.97 168.41 -1.75 168.56 C-0.96 168.67 -0.17 168.77 0.64 168.88 C3.01 169 4.75 168.7 7 168 C7 166.68 7 165.36 7 164 C7.66 164 8.32 164 9 164 C9.1 163.36 9.21 162.72 9.31 162.06 C9.54 161.38 9.77 160.7 10 160 C10.99 159.67 11.98 159.34 13 159 C11.1 154.55 9.2 150.21 6.69 146.06 C6.13 145.05 5.57 144.04 5 143 C5.33 142.34 5.66 141.68 6 141 C8 143 8 143 9.5 146.06 C10.68 149.09 10.68 149.09 13 150 C13.66 148.35 14.32 146.7 15 145 C15.66 145.33 16.32 145.66 17 146 C17.33 143.69 17.66 141.38 18 139 C18.66 139 19.32 139 20 139 C20.11 138.12 20.22 137.24 20.33 136.33 C20.49 135.17 20.65 134.01 20.81 132.81 C21.04 131.09 21.04 131.09 21.27 129.33 C22 126 22 126 23.53 123.47 C25.33 120.44 25.5 118.19 25.69 114.69 C25.75 113.62 25.82 112.55 25.89 111.45 C25.92 110.64 25.96 109.83 26 109 C23.69 108.67 21.38 108.34 19 108 C18.5 104.53 18.5 104.53 18 101 C16.35 100.67 14.7 100.34 13 100 C13 101.32 13 102.64 13 104 C11.68 104 10.36 104 9 104 C9 106.64 9 109.28 9 112 C8.34 112 7.68 112 7 112 C7 111.34 7 110.68 7 110 C6.34 110 5.68 110 5 110 C5 110.66 5 111.32 5 112 C3.02 112 1.04 112 -1 112 C-1 111.34 -1 110.68 -1 110 C0.32 109.67 1.64 109.34 3 109 C3 108.34 3 107.68 3 107 C1.02 107 -0.96 107 -3 107 C-6.52 114.32 -6.52 114.32 -6 122 C-7.56 121 -7.56 121 -9 119 C-8.74 117 -8.48 114.99 -8.13 113 C-7.94 110.02 -9.28 108.34 -11 106 C-11 105.34 -11 104.68 -11 104 C-10.34 104 -9.68 104 -9 104 C-9 102.68 -9 101.36 -9 100 C-10.32 100 -11.64 100 -13 100 C-13 98.68 -13 97.36 -13 96 C-11.68 96 -10.36 96 -9 96 C-9 94.68 -9 93.36 -9 92 C-6.03 92 -3.06 92 0 92 C0.66 93.32 1.32 94.64 2 96 C4.12 92.37 6.24 88.74 8.35 85.11 C9.07 83.88 9.79 82.64 10.52 81.41 C11.56 79.64 12.59 77.86 13.62 76.08 C14.24 75.01 14.87 73.94 15.51 72.84 C16.75 70.48 17.54 68.6 18 66 C17.01 66 16.02 66 15 66 C15 65.34 15 64.68 15 64 C14.34 64 13.68 64 13 64 C12.18 60.42 11.86 57.11 11.88 53.44 C11.87 52.04 11.87 52.04 11.87 50.62 C11.99 48.26 12.33 46.26 13 44 C13.99 44 14.98 44 16 44 C15.01 41.03 14.02 38.06 13 35 C12.01 35 11.02 35 10 35 C10 34.34 10 33.68 10 33 C9.01 33 8.02 33 7 33 C7.02 32.07 7.04 31.14 7.06 30.19 C7.16 26.98 7.16 26.98 6 24 C4.51 23.5 4.51 23.5 3 23 C1.5 20.67 1.5 20.67 0 17.75 C-1.51 14.85 -2.99 12.02 -4.75 9.27 C-5.16 8.52 -5.58 7.77 -6 7 C-5.67 6.34 -5.34 5.68 -5 5 C-4.01 6.32 -3.02 7.64 -2 9 C-1.01 8.67 -0.02 8.34 1 8 C1.99 8.5 1.99 8.5 3 9 C3 9.66 3 10.32 3 11 C3.66 11 4.32 11 5 11 C4.64 10.37 4.28 9.75 3.91 9.1 C3.21 7.88 3.21 7.88 2.5 6.62 C1.8 5.41 1.8 5.41 1.09 4.16 C0 2 0 2 0 0 Z " fill="#011939" transform="translate(701,232)"/>
<path d="M0 0 C4.62 0 9.24 0 14 0 C14 0.66 14 1.32 14 2 C16.64 2 19.28 2 22 2 C21.67 2.66 21.34 3.32 21 4 C19.14 4.6 19.14 4.6 16.81 5.06 C16 5.23 15.2 5.39 14.36 5.56 C12.41 5.92 10.46 6.25 8.5 6.56 C6.07 6.74 6.07 6.74 5 8 C4.93 10.78 5 13.55 5.06 16.34 C5 19 5 19 4 22 C2.35 22.33 0.7 22.66 -1 23 C-1.99 25.97 -2.98 28.94 -4 32 C-3.34 32 -2.68 32 -2 32 C-2 33.98 -2 35.96 -2 38 C-0.02 38 1.96 38 4 38 C5.12 41.31 5.12 41.31 6 45 C5.34 45.99 4.68 46.98 4 48 C3.34 48 2.68 48 2 48 C2 47.34 2 46.68 2 46 C0.35 46.33 -1.3 46.66 -3 47 C-3 50.63 -3 54.26 -3 58 C-2.5 57.01 -2.5 57.01 -2 56 C-0.35 56 1.3 56 3 56 C3.38 57.99 3.71 59.99 4 62 C3.67 62.33 3.34 62.66 3 63 C2.63 65.33 2.3 67.66 2 70 C2.66 70 3.32 70 4 70 C4 72.64 4 75.28 4 78 C5.32 78 6.64 78 8 78 C8 79.32 8 80.64 8 82 C8.66 82 9.32 82 10 82 C10 83.32 10 84.64 10 86 C11.32 86 12.64 86 14 86 C14 87.98 14 89.96 14 92 C11.03 92.99 8.06 93.98 5 95 C4.67 97.31 4.34 99.62 4 102 C5.32 102 6.64 102 8 102 C8 103.32 8 104.64 8 106 C9.98 106 11.96 106 14 106 C13.83 106.78 13.67 107.57 13.5 108.38 C12.94 110.88 12.94 110.88 13 113 C22.58 113.13 32.07 112.76 41.62 112.12 C42.99 112.05 44.35 111.97 45.71 111.89 C47.63 111.76 47.63 111.76 49.6 111.63 C51.34 111.52 51.34 111.52 53.11 111.41 C56.19 111.19 56.19 111.19 59 109 C59.33 108.01 59.66 107.02 60 106 C63.4 102.46 67.34 102.3 72 102 C72.71 101.92 73.42 101.85 74.16 101.77 C76.25 101.62 76.25 101.62 80 102 C83.2 104.95 83.93 106.74 85 111 C94.57 111 104.14 111 114 111 C114 113.31 114 115.62 114 118 C114.13 120.26 114.13 120.26 115 122 C115.65 122.27 116.3 122.54 116.97 122.82 C119 124 119 124 119.79 126.09 C119.92 126.89 120.05 127.68 120.19 128.5 C120.75 131.86 120.75 131.86 122 135 C123.32 134.67 124.64 134.34 126 134 C125.98 132.89 125.96 131.77 125.94 130.62 C126 127 126 127 127 125 C127.66 125 128.32 125 129 125 C129.66 122.03 130.32 119.06 131 116 C132.4 121.6 130.77 125.72 129.25 131.19 C128.98 132.21 128.72 133.23 128.45 134.29 C128.18 135.26 127.91 136.23 127.64 137.23 C127.4 138.12 127.16 139.01 126.91 139.93 C126.46 140.95 126.46 140.95 126 142 C125.01 142.33 124.02 142.66 123 143 C120.85 139.06 118.71 135.13 116.56 131.19 C115.95 130.07 115.34 128.95 114.71 127.79 C114.13 126.72 113.54 125.65 112.94 124.54 C112.13 123.06 112.13 123.06 111.31 121.54 C110 119 110 119 109 116 C96.62 116.99 96.62 116.99 84 118 C83.34 120.97 82.68 123.94 82 127 C81.34 127 80.68 127 80 127 C84.5 140.09 92.17 151.9 99.57 163.52 C101 166 101 166 101 168 C100.34 168 99.68 168 99 168 C97.53 165.9 96.19 163.82 94.88 161.62 C94.5 161.02 94.13 160.42 93.75 159.8 C91 155.27 91 155.27 91 153 C89.68 152.67 88.36 152.34 87 152 C87 151.01 87 150.02 87 149 C86.34 149 85.68 149 85 149 C84.01 146.03 83.02 143.06 82 140 C81.34 140 80.68 140 80 140 C79.67 140.99 79.34 141.98 79 143 C78.67 141.35 78.34 139.7 78 138 C78.66 138 79.32 138 80 138 C79.34 137.01 78.68 136.02 78 135 C77.34 135.66 76.68 136.32 76 137 C75.67 136.01 75.34 135.02 75 134 C67.6 134.06 60.21 134.14 52.81 134.24 C49.37 134.28 45.94 134.32 42.5 134.35 C38.56 134.38 34.61 134.43 30.66 134.49 C29.43 134.49 28.19 134.5 26.92 134.51 C25.21 134.54 25.21 134.54 23.46 134.57 C21.95 134.58 21.95 134.58 20.4 134.6 C19.61 134.73 18.82 134.86 18 135 C17.34 135.99 16.68 136.98 16 138 C15.34 138 14.68 138 14 138 C14 137.34 14 136.68 14 136 C14.66 136 15.32 136 16 136 C16 135.34 16 134.68 16 134 C13.56 134.09 11.13 134.19 8.69 134.31 C8 134.34 7.31 134.36 6.6 134.38 C2.51 134.58 2.51 134.58 -0.98 136.54 C-1.32 137.02 -1.65 137.5 -2 138 C-0.12 133.12 -0.12 133.12 1 132 C3.27 131.91 5.54 131.88 7.81 131.89 C8.88 131.89 8.88 131.89 9.97 131.89 C12.34 131.89 14.7 131.89 17.07 131.9 C18.7 131.9 20.34 131.91 21.97 131.91 C26.28 131.91 30.6 131.92 34.91 131.93 C39.31 131.94 43.7 131.95 48.1 131.95 C56.73 131.96 65.37 131.98 74 132 C74 131.34 74 130.68 74 130 C69.68 129.18 65.56 128.85 61.17 128.79 C60.51 128.78 59.86 128.77 59.19 128.76 C57.04 128.73 54.9 128.71 52.76 128.68 C51.26 128.66 49.77 128.64 48.28 128.62 C44.36 128.57 40.45 128.52 36.53 128.47 C32.53 128.42 28.53 128.36 24.52 128.31 C16.68 128.2 8.84 128.1 1 128 C1 127.34 1 126.68 1 126 C0.01 126 -0.98 126 -2 126 C-2.19 126.84 -2.19 126.84 -2.38 127.71 C-3.04 130.14 -3.89 132.37 -4.88 134.69 C-5.2 135.48 -5.53 136.26 -5.87 137.07 C-7 139 -7 139 -10 140 C-10 141.98 -10 143.96 -10 146 C-10.66 146 -11.32 146 -12 146 C-12 146.99 -12 147.98 -12 149 C-12.99 149.33 -13.98 149.66 -15 150 C-16.46 152.32 -17.78 154.59 -19.06 157 C-22.75 163.88 -22.75 163.88 -25 165 C-23.43 159.08 -20.33 154.33 -17.12 149.19 C-13.61 143.55 -10.39 138.03 -7.88 131.87 C-7 130 -7 130 -4.75 127.38 C-2.4 124.18 -2.7 121.87 -3 118 C-4.49 117.5 -4.49 117.5 -6 117 C-6 116.34 -6 115.68 -6 115 C-24.48 115 -42.96 115 -62 115 C-62.33 115.66 -62.66 116.32 -63 117 C-63 116.34 -63 115.68 -63 115 C-70.59 115 -78.18 115 -86 115 C-86 114.67 -86 114.34 -86 114 C-60.26 113.67 -34.52 113.34 -8 113 C-11.96 106.4 -15.92 99.8 -20 93 C-23.12 87.31 -23.12 87.31 -24.42 84.86 C-25.76 82.44 -27.16 80.09 -28.61 77.74 C-29.08 76.98 -29.54 76.22 -30.02 75.43 C-30.95 73.92 -31.89 72.42 -32.84 70.92 C-36.05 65.66 -36.05 65.66 -35.79 61.99 C-35.53 61.33 -35.27 60.68 -35 60 C-34.34 60 -33.68 60 -33 60 C-32.9 59.29 -32.81 58.59 -32.7 57.86 C-31.88 54.52 -30.52 52.16 -28.73 49.22 C-28.07 48.13 -27.41 47.04 -26.73 45.92 C-26.03 44.78 -25.33 43.64 -24.62 42.5 C-23.93 41.36 -23.24 40.22 -22.55 39.08 C-21.27 36.98 -19.99 34.88 -18.7 32.78 C-18.14 31.86 -17.58 30.95 -17 30 C-16.41 29.12 -15.82 28.24 -15.22 27.33 C-14.81 26.56 -14.41 25.79 -14 25 C-14.5 23.51 -14.5 23.51 -15 22 C-14.01 21.67 -13.02 21.34 -12 21 C-10.57 18.81 -9.3 16.67 -8.06 14.38 C-7.05 12.54 -7.05 12.54 -6.04 10.71 C-5.7 10.1 -5.37 9.5 -5.03 8.87 C-3.39 5.89 -1.69 2.95 0 0 Z " fill="#022543" transform="translate(498,282)"/>
<path d="M0 0 C0 33.33 0 66.66 0 101 C-4.29 101 -8.58 101 -13 101 C-13.99 102.65 -14.98 104.3 -16 106 C-18.25 106.81 -18.25 106.81 -21 107 C-22.2 107.08 -23.39 107.17 -24.62 107.25 C-28 107 -28 107 -29.6 105.79 C-32.47 102.12 -33.3 97.35 -34.56 92.94 C-34.87 91.87 -35.18 90.8 -35.5 89.7 C-38.06 80.52 -39.41 71.5 -40 62 C-40.66 62 -41.32 62 -42 62 C-42.67 59.42 -43.34 56.83 -44 54.25 C-44.19 53.52 -44.38 52.79 -44.58 52.04 C-45.47 48.55 -46 45.62 -46 42 C-46.66 42 -47.32 42 -48 42 C-50.79 35.05 -51.63 28.45 -52 21 C-53.13 20.69 -54.27 20.38 -55.44 20.06 C-59 19 -59 19 -60 18 C-60.04 16.33 -60.04 14.67 -60 13 C-58.68 13.33 -57.36 13.66 -56 14 C-56 13.01 -56 12.02 -56 11 C-53.36 10.67 -50.72 10.34 -48 10 C-48 9.34 -48 8.68 -48 8 C-46.68 8.33 -45.36 8.66 -44 9 C-44 9.99 -44 10.98 -44 12 C-43.34 12 -42.68 12 -42 12 C-42 11.34 -42 10.68 -42 10 C-40.68 10 -39.36 10 -38 10 C-37.67 10.99 -37.34 11.98 -37 13 C-36.67 11.35 -36.34 9.7 -36 8 C-34.68 8 -33.36 8 -32 8 C-32 7.34 -32 6.68 -32 6 C-30.68 6 -29.36 6 -28 6 C-28 5.01 -28 4.02 -28 3 C-18.55 0.93 -9.7 0 0 0 Z " fill="#001937" transform="translate(800,286)"/>
<path d="M0 0 C1.88 0.13 1.88 0.13 4 1 C4.99 3.97 4.99 3.97 6 7 C26.46 7 46.92 7 68 7 C68 7.66 68 8.32 68 9 C61.75 9.88 55.57 10.27 49.26 10.5 C47.21 10.58 45.15 10.67 43.09 10.75 C39.87 10.88 36.66 11 33.44 11.12 C30.32 11.25 27.2 11.37 24.07 11.5 C22.63 11.55 22.63 11.55 21.15 11.61 C20.25 11.64 19.36 11.68 18.44 11.72 C17.65 11.75 16.86 11.78 16.05 11.81 C13.8 11.94 13.8 11.94 11 13 C10.66 18.45 10.96 22.58 13.14 27.7 C14.61 31.64 15.37 35.75 16.25 39.85 C17 42.98 17.98 45.95 19 49 C19.41 50.75 19.81 52.5 20.19 54.25 C21.75 60.69 24.1 66.72 26.57 72.86 C26.87 73.59 27.17 74.33 27.48 75.09 C27.75 75.75 28.01 76.41 28.29 77.08 C29.01 79.04 29.53 80.97 30 83 C31.7 83.04 31.7 83.04 33.44 83.08 C37.65 83.17 41.86 83.27 46.07 83.37 C47.89 83.42 49.72 83.46 51.54 83.5 C54.16 83.56 56.78 83.62 59.39 83.68 C60.21 83.7 61.03 83.72 61.87 83.73 C65.14 83.82 67.87 83.96 71 85 C72.89 85.22 74.79 85.41 76.69 85.56 C78.18 85.69 78.18 85.69 79.7 85.82 C80.46 85.88 81.22 85.94 82 86 C82 86.66 82 87.32 82 88 C78.9 88.91 76.12 89.13 72.9 89.13 C71.37 89.13 71.37 89.13 69.82 89.14 C68.73 89.14 67.65 89.13 66.52 89.13 C65.4 89.13 64.28 89.13 63.12 89.14 C60.76 89.14 58.39 89.13 56.02 89.13 C52.38 89.13 48.75 89.13 45.11 89.14 C42.81 89.14 40.51 89.13 38.21 89.13 C37.12 89.13 36.03 89.14 34.9 89.14 C33.89 89.14 32.88 89.13 31.85 89.13 C30.96 89.13 30.07 89.13 29.15 89.13 C27 89 27 89 25 88 C25.08 87.09 25.16 86.19 25.25 85.25 C25.26 78.62 22.51 71.89 19.48 66.09 C17.82 62.61 16.98 59.32 16.12 55.56 C14.5 48.7 12.46 42.1 10.16 35.43 C8.87 31.61 7.74 27.75 6.68 23.86 C6.07 21.79 6.07 21.79 4 20 C4 19.01 4 18.02 4 17 C0.89 17.92 -0.64 18.37 -2.29 21.24 C-2.59 22.11 -2.88 22.98 -3.19 23.88 C-4.95 28.91 -4.95 28.91 -6.09 31.11 C-7.2 33.16 -7.2 33.16 -7.44 36.38 C-8 40 -8 40 -9.44 42.69 C-10.95 45.9 -11.44 48.21 -11.94 51.69 C-12.83 57.81 -14.68 63.28 -17 69 C-17.66 69 -18.32 69 -19 69 C-18.94 69.66 -18.88 70.32 -18.81 71 C-19.01 74.18 -19.9 76.62 -21.07 79.56 C-23.49 85.93 -25.35 92.55 -27.12 99.12 C-28 102 -28 102 -30 105 C-30.45 107.22 -30.81 109.45 -31.12 111.69 C-31.29 112.87 -31.46 114.05 -31.63 115.26 C-31.81 116.62 -31.81 116.62 -32 118 C-34.94 117.63 -34.94 117.63 -38 117 C-39 114.87 -39 114.87 -40 112 C-40.97 110.85 -41.97 109.72 -43 108.62 C-46.07 105.22 -47.09 102.46 -48 98 C-48.66 98 -49.32 98 -50 98 C-50.43 97.01 -50.87 96.02 -51.31 95 C-52.27 93.24 -52.27 93.24 -54 92 C-60.17 91.03 -66.36 91.14 -72 94 C-73.34 96.02 -73.34 96.02 -74 98 C-74.66 98 -75.32 98 -76 98 C-76 98.99 -76 99.98 -76 101 C-90.61 101.59 -90.61 101.59 -96 98 C-96.66 96.02 -97.32 94.04 -98 92 C-104.93 91.5 -104.93 91.5 -112 91 C-112 91.99 -112 92.98 -112 94 C-112.66 94 -113.32 94 -114 94 C-114.08 95.2 -114.16 96.39 -114.25 97.62 C-114.96 104.29 -117.05 110.61 -119 117 C-121.47 117.5 -121.47 117.5 -124 118 C-124 117.01 -124 116.02 -124 115 C-124.66 115 -125.32 115 -126 115 C-126.5 112.03 -126.5 112.03 -127 109 C-127.66 109 -128.32 109 -129 109 C-131.62 104.46 -132.37 101.21 -132.34 95.98 C-132.34 95.31 -132.34 94.64 -132.34 93.94 C-132.34 91.74 -132.32 89.53 -132.29 87.32 C-132.29 85.78 -132.28 84.24 -132.28 82.71 C-132.27 78.67 -132.24 74.64 -132.21 70.6 C-132.18 66.48 -132.16 62.36 -132.15 58.23 C-132.11 50.16 -132.06 42.08 -132 34 C-128 38.75 -128 38.75 -128 41 C-127.01 41.33 -126.02 41.66 -125 42 C-124.63 43.32 -124.29 44.66 -124 46 C-123.34 46.33 -122.68 46.66 -122 47 C-121.67 46.34 -121.34 45.68 -121 45 C-117.04 45 -113.08 45 -109 45 C-109 45.66 -109 46.32 -109 47 C-107.91 46.94 -106.81 46.88 -105.69 46.81 C-102 47 -102 47 -100.4 48.11 C-98.46 50.73 -97.81 53.36 -96.94 56.5 C-95.9 60.19 -95.13 62.8 -93 66 C-92.45 67.61 -91.96 69.24 -91.5 70.88 C-91.23 71.76 -90.97 72.64 -90.69 73.55 C-90 76 -90 76 -89.44 79 C-87.59 81.57 -86.55 81.55 -83.5 82.19 C-81.67 82.46 -79.83 82.74 -78 83 C-76.42 83.35 -74.83 83.7 -73.25 84.06 C-67.89 85.18 -62.56 85.28 -57.1 85.36 C-54 86 -54 86 -51.59 88.42 C-50 91 -50 91 -50 93 C-49.38 93.23 -48.76 93.45 -48.12 93.69 C-45.38 95.38 -45.07 97.03 -44 100 C-43.34 100.33 -42.68 100.66 -42 101 C-41.33 102.66 -40.66 104.33 -40 106 C-38.07 109.03 -37.49 109.84 -34 111 C-33.92 109.97 -33.83 108.94 -33.75 107.88 C-32.93 101.31 -31.73 92.4 -27.53 87.17 C-25.67 84.53 -25.08 82.23 -24.32 79.09 C-24.03 77.93 -23.74 76.78 -23.44 75.59 C-23.15 74.38 -22.86 73.18 -22.56 71.94 C-20.67 64.18 -18.68 56.65 -15.75 49.21 C-14.84 46.92 -14.84 46.92 -15 44 C-15.52 44.85 -16.04 45.69 -16.57 46.56 C-20.36 52.72 -24.16 58.88 -28 65 C-28.33 64.34 -28.66 63.68 -29 63 C-27.97 60.73 -27.97 60.73 -26.35 57.9 C-25.47 56.34 -25.47 56.34 -24.57 54.75 C-23.93 53.63 -23.28 52.52 -22.62 51.38 C-21.98 50.24 -21.34 49.11 -20.68 47.94 C-17.9 43.02 -15.09 38.12 -12.17 33.28 C-7.74 25.88 -4.87 19.4 -3.54 10.79 C-3 8 -3 8 -1 5 C-0.62 3.34 -0.27 1.68 0 0 Z " fill="#012348" transform="translate(132,3)"/>
<path d="M0 0 C1.88 0.12 1.88 0.12 4 1 C4.99 3.97 4.99 3.97 6 7 C26.46 7 46.92 7 68 7 C68 7.66 68 8.32 68 9 C61.75 9.88 55.57 10.27 49.26 10.5 C47.21 10.58 45.15 10.67 43.09 10.75 C39.87 10.88 36.66 11 33.44 11.12 C30.32 11.25 27.2 11.37 24.07 11.5 C22.63 11.55 22.63 11.55 21.15 11.61 C20.25 11.64 19.36 11.68 18.44 11.72 C17.65 11.75 16.86 11.78 16.05 11.81 C13.8 11.94 13.8 11.94 11 13 C10.66 18.45 10.96 22.58 13.14 27.7 C14.61 31.64 15.37 35.75 16.25 39.85 C17 42.98 17.98 45.95 19 49 C19.41 50.75 19.81 52.5 20.19 54.25 C21.75 60.69 24.1 66.72 26.57 72.86 C26.87 73.59 27.17 74.33 27.48 75.09 C27.75 75.75 28.01 76.41 28.29 77.08 C29.01 79.04 29.53 80.97 30 83 C31.7 83.04 31.7 83.04 33.44 83.08 C37.65 83.17 41.86 83.27 46.07 83.37 C47.89 83.42 49.72 83.46 51.54 83.5 C54.16 83.56 56.78 83.62 59.39 83.68 C60.21 83.7 61.03 83.72 61.87 83.73 C65.14 83.82 67.87 83.96 71 85 C72.89 85.22 74.79 85.41 76.69 85.56 C78.18 85.69 78.18 85.69 79.7 85.82 C80.46 85.88 81.22 85.94 82 86 C82 86.66 82 87.32 82 88 C78.9 88.91 76.12 89.13 72.9 89.13 C71.37 89.13 71.37 89.13 69.82 89.14 C68.73 89.14 67.65 89.13 66.52 89.13 C65.4 89.13 64.28 89.13 63.12 89.14 C60.76 89.14 58.39 89.13 56.02 89.13 C52.38 89.13 48.75 89.13 45.11 89.14 C42.81 89.14 40.51 89.13 38.21 89.13 C37.12 89.13 36.03 89.14 34.9 89.14 C33.89 89.14 32.88 89.13 31.85 89.13 C30.96 89.13 30.07 89.13 29.15 89.13 C27 89 27 89 25 88 C25.08 87.09 25.17 86.19 25.25 85.25 C25.26 78.62 22.51 71.89 19.48 66.09 C17.82 62.61 16.98 59.32 16.12 55.56 C14.5 48.7 12.46 42.1 10.16 35.43 C8.87 31.61 7.74 27.75 6.68 23.86 C6.07 21.79 6.07 21.79 4 20 C4 19.01 4 18.02 4 17 C0.89 17.92 -0.64 18.37 -2.29 21.24 C-2.59 22.11 -2.88 22.98 -3.19 23.88 C-4.95 28.91 -4.95 28.91 -6.09 31.11 C-7.2 33.16 -7.2 33.16 -7.44 36.38 C-8 40 -8 40 -9.44 42.69 C-10.95 45.9 -11.44 48.21 -11.94 51.69 C-12.83 57.81 -14.68 63.28 -17 69 C-17.66 69 -18.32 69 -19 69 C-18.94 69.66 -18.88 70.32 -18.81 71 C-19.01 74.18 -19.9 76.62 -21.07 79.56 C-23.49 85.93 -25.35 92.55 -27.12 99.12 C-28 102 -28 102 -30 105 C-30.45 107.22 -30.81 109.45 -31.12 111.69 C-31.29 112.87 -31.46 114.05 -31.63 115.26 C-31.81 116.62 -31.81 116.62 -32 118 C-34.94 117.63 -34.94 117.63 -38 117 C-39 114.88 -39 114.88 -40 112 C-40.97 110.85 -41.97 109.72 -43 108.62 C-46.07 105.22 -47.09 102.46 -48 98 C-48.66 98 -49.32 98 -50 98 C-50.6 96.84 -51.2 95.69 -51.81 94.5 C-53.05 92.48 -53.05 92.48 -55 91 C-61.59 89.81 -68.84 90.32 -75 93 C-75.47 93.7 -75.95 94.4 -76.44 95.12 C-78 97 -78 97 -81.81 97.56 C-86.6 97.35 -88.58 95.19 -92 92 C-93.33 91.64 -94.66 91.3 -96 91 C-96.33 90.01 -96.66 89.02 -97 88 C-94 86 -94 86 -91 86 C-91.33 83.36 -91.66 80.72 -92 78 C-92.66 78 -93.32 78 -94 78 C-94.51 76.4 -95 74.79 -95.5 73.19 C-95.78 72.29 -96.06 71.4 -96.34 70.48 C-97 68 -97 68 -97 65 C-96.34 65 -95.68 65 -95 65 C-93.83 67.29 -92.66 69.58 -91.5 71.88 C-91.17 72.53 -90.83 73.18 -90.49 73.85 C-88 78.77 -88 78.77 -88 81 C-85.61 81.48 -83.22 81.95 -80.84 82.43 C-79.09 82.78 -77.34 83.15 -75.6 83.54 C-69.41 84.91 -63.44 85.27 -57.1 85.36 C-54 86 -54 86 -51.59 88.42 C-50 91 -50 91 -50 93 C-49.38 93.23 -48.76 93.45 -48.12 93.69 C-45.38 95.38 -45.07 97.03 -44 100 C-43.01 100.5 -43.01 100.5 -42 101 C-41.33 102.66 -40.66 104.33 -40 106 C-38.07 109.03 -37.49 109.84 -34 111 C-33.92 109.97 -33.84 108.94 -33.75 107.88 C-32.93 101.31 -31.73 92.4 -27.53 87.17 C-25.67 84.53 -25.08 82.23 -24.32 79.09 C-24.03 77.93 -23.74 76.78 -23.44 75.59 C-23.15 74.38 -22.86 73.18 -22.56 71.94 C-20.67 64.18 -18.68 56.65 -15.75 49.21 C-14.84 46.92 -14.84 46.92 -15 44 C-15.52 44.85 -16.04 45.69 -16.57 46.56 C-20.36 52.72 -24.16 58.88 -28 65 C-28.33 64.34 -28.66 63.68 -29 63 C-27.97 60.73 -27.97 60.73 -26.35 57.9 C-25.47 56.34 -25.47 56.34 -24.57 54.75 C-23.93 53.63 -23.28 52.52 -22.62 51.38 C-21.98 50.24 -21.34 49.11 -20.68 47.94 C-17.9 43.02 -15.09 38.12 -12.17 33.28 C-7.74 25.88 -4.87 19.4 -3.54 10.79 C-3 8 -3 8 -1 5 C-0.62 3.34 -0.27 1.68 0 0 Z " fill="#08549A" transform="translate(132,3)"/>
<path d="M0 0 C1.16 0.1 1.16 0.1 2.35 0.2 C4.38 0.75 4.38 0.75 6.38 3.75 C9.91 4.93 12.72 4.86 16.45 4.85 C17.13 4.85 17.82 4.84 18.52 4.84 C20.7 4.84 22.88 4.83 25.06 4.81 C26.54 4.81 28.02 4.8 29.5 4.8 C33.13 4.79 36.75 4.77 40.38 4.75 C40.37 5.86 40.36 6.96 40.36 8.11 C40.29 12.06 40.29 12.06 41.38 15.75 C42.03 16.02 42.68 16.29 43.35 16.57 C45.38 17.75 45.38 17.75 46.17 19.84 C46.3 20.64 46.43 21.43 46.56 22.25 C47.13 25.61 47.13 25.61 48.38 28.75 C49.69 28.42 51.01 28.09 52.38 27.75 C52.35 26.64 52.33 25.52 52.31 24.38 C52.38 20.75 52.38 20.75 53.38 18.75 C54.03 18.75 54.69 18.75 55.38 18.75 C56.37 14.3 56.37 14.3 57.38 9.75 C58.78 15.35 57.15 19.47 55.62 24.94 C55.23 26.47 55.23 26.47 54.82 28.04 C54.55 29.01 54.29 29.98 54.02 30.98 C53.65 32.32 53.65 32.32 53.28 33.68 C52.98 34.36 52.68 35.05 52.38 35.75 C50.89 36.25 50.89 36.25 49.38 36.75 C47.23 32.81 45.08 28.88 42.94 24.94 C42.02 23.26 42.02 23.26 41.08 21.54 C40.21 19.94 40.21 19.94 39.32 18.29 C38.78 17.3 38.24 16.31 37.68 15.29 C36.38 12.75 36.38 12.75 35.38 9.75 C23 10.74 23 10.74 10.38 11.75 C9.72 14.72 9.05 17.69 8.38 20.75 C7.72 20.75 7.05 20.75 6.38 20.75 C10.88 33.84 18.54 45.65 25.94 57.27 C27.38 59.75 27.38 59.75 27.38 61.75 C26.72 61.75 26.05 61.75 25.38 61.75 C23.9 59.65 22.56 57.57 21.25 55.38 C20.88 54.77 20.5 54.17 20.12 53.55 C17.38 49.02 17.38 49.02 17.38 46.75 C16.05 46.42 14.74 46.09 13.38 45.75 C13.38 44.76 13.38 43.77 13.38 42.75 C12.72 42.75 12.05 42.75 11.38 42.75 C10.38 39.78 9.39 36.81 8.38 33.75 C7.72 33.75 7.05 33.75 6.38 33.75 C6.04 34.74 5.72 35.73 5.38 36.75 C5.04 35.1 4.72 33.45 4.38 31.75 C5.03 31.75 5.7 31.75 6.38 31.75 C5.72 30.76 5.05 29.77 4.38 28.75 C4.12 26.06 4.29 23.46 4.38 20.75 C3.61 20.65 2.85 20.54 2.06 20.44 C-1.1 19.85 -4.19 19.17 -7.31 18.38 C-8.24 18.14 -9.18 17.91 -10.14 17.66 C-12.76 16.7 -14.02 16.02 -15.62 13.75 C-15.62 12.43 -15.62 11.11 -15.62 9.75 C-20.9 9.42 -26.18 9.09 -31.62 8.75 C-31.62 8.42 -31.62 8.09 -31.62 7.75 C-23.71 7.25 -23.71 7.25 -15.62 6.75 C-15.62 6.09 -15.62 5.43 -15.62 4.75 C-14.45 4.6 -14.45 4.6 -13.25 4.44 C-10.29 3.97 -10.29 3.97 -8.62 0.75 C-5.68 -0.38 -3.11 -0.31 0 0 Z " fill="#02518A" transform="translate(571.625,388.25)"/>
<path d="M0 0 C2.92 2.57 4.58 5.52 6.48 8.89 C6.8 9.47 7.13 10.05 7.47 10.64 C8.16 11.87 8.86 13.11 9.55 14.34 C10.63 16.26 11.72 18.17 12.8 20.08 C15.85 25.42 18.88 30.77 21.84 36.15 C22.6 37.5 23.36 38.84 24.12 40.19 C24.75 41.32 25.37 42.44 26.01 43.61 C27.86 46.3 27.86 46.3 31.24 46.86 C32.15 46.91 33.06 46.95 34 47 C33.67 47.99 33.34 48.98 33 50 C41.32 52.77 50.99 52.24 59.69 52.56 C61.33 52.63 61.33 52.63 63.01 52.69 C65.67 52.8 68.34 52.9 71 53 C71 53.33 71 53.66 71 54 C70.34 54.03 69.69 54.05 69.01 54.08 C66.05 54.19 63.09 54.31 60.12 54.44 C59.09 54.48 58.06 54.52 57 54.56 C55.52 54.62 55.52 54.62 54.01 54.68 C53.1 54.72 52.19 54.76 51.25 54.79 C48.97 54.87 48.97 54.87 47 56 C44.96 56.07 42.92 56.08 40.88 56.06 C39.78 56.05 38.68 56.04 37.55 56.04 C36.71 56.02 35.87 56.01 35 56 C35 56.66 35 57.32 35 58 C33.92 58.25 33.92 58.25 32.82 58.5 C27.07 60.14 23.61 61.63 20.51 66.89 C19.53 68.8 18.59 70.74 17.69 72.69 C16.74 74.61 15.78 76.53 14.82 78.45 C14.14 79.84 14.14 79.84 13.44 81.26 C11.27 85.39 8.69 89.2 6 93 C5.67 92.34 5.34 91.68 5 91 C5.97 88.91 5.97 88.91 7.49 86.35 C8.03 85.43 8.57 84.51 9.13 83.55 C9.99 82.1 9.99 82.1 10.88 80.62 C12 78.72 13.12 76.82 14.24 74.91 C14.75 74.07 15.25 73.22 15.77 72.35 C16.9 70.2 17.54 68.37 18 66 C17.01 66 16.02 66 15 66 C15 65.34 15 64.68 15 64 C14.34 64 13.68 64 13 64 C12.18 60.42 11.86 57.11 11.88 53.44 C11.87 52.04 11.87 52.04 11.87 50.62 C11.99 48.26 12.33 46.26 13 44 C13.99 44 14.98 44 16 44 C14.51 39.55 14.51 39.55 13 35 C12.01 35 11.02 35 10 35 C10 34.34 10 33.68 10 33 C9.01 33 8.02 33 7 33 C7.03 31.61 7.03 31.61 7.06 30.19 C7.16 26.98 7.16 26.98 6 24 C5.01 23.67 4.02 23.34 3 23 C1.5 20.67 1.5 20.67 0 17.75 C-1.51 14.85 -2.99 12.02 -4.75 9.27 C-5.16 8.52 -5.58 7.77 -6 7 C-5.67 6.34 -5.34 5.68 -5 5 C-4.01 6.32 -3.02 7.64 -2 9 C-1.01 8.67 -0.02 8.34 1 8 C1.66 8.33 2.32 8.66 3 9 C3 9.66 3 10.32 3 11 C3.66 11 4.32 11 5 11 C4.64 10.37 4.28 9.75 3.91 9.1 C3.44 8.28 2.98 7.47 2.5 6.62 C2.04 5.81 1.57 5 1.09 4.16 C0 2 0 2 0 0 Z " fill="#053362" transform="translate(701,232)"/>
<path d="M0 0 C3 1 3 1 4.72 4.14 C5.35 5.53 5.97 6.92 6.57 8.32 C6.9 9.05 7.23 9.78 7.57 10.53 C8.62 12.87 9.65 15.22 10.69 17.56 C11.4 19.15 12.1 20.73 12.81 22.32 C14.55 26.21 16.28 30.1 18 34 C19.35 33.97 19.35 33.97 20.73 33.95 C24.11 33.91 27.48 33.91 30.86 33.93 C32.32 33.94 33.77 33.92 35.23 33.89 C47.27 33.67 47.27 33.67 51.41 36.86 C53.21 39.15 54.62 41.43 56 44 C56.75 45.11 57.51 46.21 58.29 47.29 C58.92 48.25 59.54 49.2 60.19 50.19 C60.82 51.15 61.45 52.11 62.11 53.11 C62.73 54.06 63.36 55.02 64 56 C65.33 58 66.66 60 68 62 C71.9 53.29 74.41 44.16 77.11 35.02 C78.8 29.3 80.52 23.59 82.25 17.88 C82.76 16.16 82.76 16.16 83.28 14.41 C83.61 13.34 83.93 12.28 84.27 11.18 C84.55 10.23 84.84 9.28 85.13 8.3 C86 6 86 6 88 4 C87.66 9.5 86.29 14.21 84.44 19.38 C82.04 26.27 79.98 32.61 83.17 39.54 C84.06 41.12 85.01 42.67 86 44.19 C86.33 44.79 86.66 45.38 87 46 C86.5 46.99 86.5 46.99 86 48 C84.02 45.03 82.04 42.06 80 39 C79.79 40.4 79.59 41.81 79.38 43.25 C79.26 44.04 79.14 44.83 79.02 45.64 C79 48.36 79.53 49.73 81 52 C81.66 52.33 82.32 52.66 83 53 C82.67 53.99 82.34 54.98 82 56 C81.01 56 80.02 56 79 56 C79 55.01 79 54.02 79 53 C78.34 53 77.68 53 77 53 C77 54.32 77 55.64 77 57 C76.01 57.5 76.01 57.5 75 58 C74.09 60.11 74.09 60.11 73.38 62.56 C73.11 63.39 72.85 64.22 72.59 65.07 C72.39 65.7 72.2 66.34 72 67 C70.35 67 68.7 67 67 67 C66.5 64.03 66.5 64.03 66 61 C65.01 61 64.02 61 63 61 C63 60.34 63 59.68 63 59 C61.51 58.5 61.51 58.5 60 58 C59 56.33 58 54.67 57 53 C55.51 52.5 55.51 52.5 54 52 C52.83 50.04 52.83 50.04 51.81 47.62 C51.47 46.83 51.12 46.04 50.77 45.23 C50 43 50 43 50 40 C46.38 38.79 43.07 38.86 39.3 38.87 C38.56 38.87 37.81 38.87 37.04 38.86 C35.46 38.86 33.88 38.87 32.3 38.87 C29.88 38.87 27.45 38.87 25.03 38.86 C23.49 38.86 21.96 38.87 20.43 38.87 C19.7 38.87 18.97 38.86 18.22 38.86 C14.82 38.57 14.82 38.57 12 40 C9.52 40.21 7.05 40.38 4.56 40.5 C-0.37 40.58 -0.37 40.58 -5 42 C-4.67 39.03 -4.34 36.06 -4 33 C0.05 32.02 3.84 31.92 8 32 C8.33 30.02 8.66 28.04 9 26 C8.34 26 7.68 26 7 26 C4.69 21.95 4.24 17.92 3.56 13.36 C3.38 12.58 3.19 11.8 3 11 C2.34 10.67 1.68 10.34 1 10 C1 10.99 1 11.98 1 13 C0.01 13 -0.98 13 -2 13 C-2.12 13.96 -2.24 14.92 -2.37 15.91 C-3.02 20.47 -4.04 24.94 -5.06 29.44 C-5.34 30.68 -5.34 30.68 -5.63 31.94 C-6.08 33.96 -6.54 35.98 -7 38 C-7.66 38 -8.32 38 -9 38 C-8.58 30.37 -6.49 23.53 -4.28 16.27 C-2.65 10.89 -1.29 5.46 0 0 Z " fill="#001D40" transform="translate(639,360)"/>
<path d="M0 0 C0.99 0 1.98 0 3 0 C4.46 2.65 5 3.89 5 7 C5.99 7.33 6.98 7.66 8 8 C11.14 13.94 11.14 13.94 10.69 17.44 C10.46 17.95 10.23 18.47 10 19 C9.51 16.53 9.51 16.53 9 14 C8.34 14 7.68 14 7 14 C7.5 15.22 7.99 16.43 8.5 17.69 C9.72 20.92 10.33 23.5 10 27 C10.66 27 11.32 27 12 27 C12.33 29.64 12.66 32.28 13 35 C11.35 35.66 9.7 36.32 8 37 C8 37.99 8 38.98 8 40 C8.72 40.08 9.44 40.16 10.19 40.25 C13 41 13 41 15.31 43.06 C19.22 45.88 21.24 45.68 26 45 C28.15 42.6 28.15 42.6 30 40 C34.3 38.95 38.47 38.89 42.88 38.94 C44.03 38.95 45.18 38.96 46.37 38.96 C47.24 38.98 48.1 38.99 49 39 C49 39.33 49 39.66 49 40 C47.88 40.09 46.76 40.17 45.61 40.26 C44.13 40.4 42.66 40.54 41.19 40.69 C40.08 40.77 40.08 40.77 38.95 40.85 C36.5 41.06 36.5 41.06 33 42 C31.07 44.46 31.07 44.46 30 47 C29.34 47 28.68 47 28 47 C28 47.99 28 48.98 28 50 C13.39 50.59 13.39 50.59 8 47 C7.34 45.02 6.68 43.04 6 41 C-0.93 40.5 -0.93 40.5 -8 40 C-8 40.99 -8 41.98 -8 43 C-8.66 43 -9.32 43 -10 43 C-10.15 44.86 -10.15 44.86 -10.31 46.75 C-10.95 52.64 -12.46 58.29 -14 64 C-16.48 64.5 -16.48 64.5 -19 65 C-19 63.68 -19 62.36 -19 61 C-18.01 61 -17.02 61 -16 61 C-15.85 59.05 -15.85 59.05 -15.69 57.06 C-15.23 52.87 -14.18 49.23 -12.77 45.28 C-11.53 41.62 -10.49 37.84 -10 34 C-10.33 33.34 -10.66 32.68 -11 32 C-10.34 31.01 -9.68 30.02 -9 29 C-8.33 26.72 -8.33 26.72 -7.88 24.31 C-7.71 23.5 -7.54 22.7 -7.37 21.86 C-7.25 21.25 -7.12 20.63 -7 20 C-6.34 20 -5.68 20 -5 20 C-4.92 18.74 -4.84 17.48 -4.75 16.19 C-4.14 10.44 -2.14 5.33 0 0 Z " fill="#013565" transform="translate(28,54)"/>
<path d="M0 0 C2.31 0 4.62 0 7 0 C7.07 1.25 7.07 1.25 7.15 2.53 C7.59 9.22 8.35 15.5 10 22 C10.66 22 11.32 22 12 22 C12.67 24.58 13.34 27.17 14 29.75 C14.19 30.48 14.38 31.21 14.58 31.96 C15.47 35.45 16 38.38 16 42 C16.66 42 17.32 42 18 42 C19.33 44.67 19.48 47.34 19.85 50.27 C21.29 61.35 23.99 71.67 27.5 82.25 C28 84 28 84 28 86 C35.13 86.37 35.13 86.37 42 85 C42.43 84.15 42.87 83.31 43.31 82.44 C43.87 81.63 44.43 80.83 45 80 C49.85 79.53 53.17 80.03 58 81 C58 85.95 58 90.9 58 96 C54.28 97.86 50.06 97.45 46 97 C43.87 96.14 43.87 96.14 41.81 95.06 C35.65 91.91 28.78 92.18 22 92 C22 91.34 22 90.68 22 90 C20.68 90 19.36 90 18 90 C18 89.34 18 88.68 18 88 C20.31 87.67 22.62 87.34 25 87 C24.43 78.91 21.84 71.38 19.44 63.69 C18.8 61.63 18.16 59.58 17.53 57.52 C16.96 55.67 16.39 53.82 15.81 51.97 C15 49 15 49 15 46 C14.34 46 13.68 46 13 46 C10.2 39.99 9.07 34.38 8.04 27.82 C6.71 20.72 4.22 13.86 2 7 C1.72 7.91 1.72 7.91 1.44 8.85 C-0.46 15.18 -2.38 21.5 -4.3 27.83 C-5.01 30.19 -5.73 32.55 -6.44 34.91 C-7.46 38.31 -8.49 41.7 -9.52 45.09 C-9.84 46.15 -10.16 47.21 -10.49 48.3 C-10.79 49.28 -11.09 50.26 -11.4 51.27 C-11.66 52.14 -11.92 53.01 -12.19 53.9 C-13 56 -13 56 -15 58 C-14.24 50.7 -14.24 50.7 -13.03 47.23 C-12.03 44.1 -11.55 41.26 -11.16 38 C-10.09 30.66 -7.89 23.92 -5.44 16.94 C-4.62 14.57 -3.81 12.21 -3 9.84 C-2.64 8.81 -2.28 7.78 -1.91 6.73 C-1.16 4.49 -0.53 2.29 0 0 Z " fill="#0E568C" transform="translate(742,306)"/>
<path d="M0 0 C0.5 0.99 0.5 0.99 1 2 C0.21 3.78 0.21 3.78 -1.05 5.92 C-1.5 6.7 -1.95 7.48 -2.42 8.28 C-3.38 9.91 -4.34 11.54 -5.31 13.17 C-7.79 17.46 -9.63 20.95 -10 26 C-10.66 26 -11.32 26 -12 26 C-12 27.65 -12 29.3 -12 31 C-11.34 31.33 -10.68 31.66 -10 32 C-11.66 37.92 -14.66 42.53 -17.99 47.61 C-20.36 51.06 -20.36 51.06 -20.7 55.05 C-19.36 58.79 -17.17 62.12 -15.18 65.54 C-14.79 66.35 -14.4 67.16 -14 68 C-14.33 68.66 -14.66 69.32 -15 70 C-16.98 66.7 -18.96 63.4 -21 60 C-21.66 61.65 -22.32 63.3 -23 65 C-24 66 -24 66 -26.94 66.1 C-28.14 66.09 -29.33 66.07 -30.56 66.06 C-32.36 66.05 -32.36 66.05 -34.19 66.04 C-35.58 66.02 -35.58 66.02 -37 66 C-37 65.34 -37 64.68 -37 64 C-37.66 64 -38.32 64 -39 64 C-39 63.34 -39 62.68 -39 62 C-39.66 62 -40.32 62 -41 62 C-41 61.34 -41 60.68 -41 60 C-41.67 59.99 -42.34 59.98 -43.02 59.97 C-49.97 59.86 -56.91 59.75 -63.85 59.63 C-66.44 59.58 -69.04 59.54 -71.63 59.5 C-75.35 59.44 -79.07 59.38 -82.8 59.32 C-83.96 59.3 -85.12 59.28 -86.31 59.27 C-87.39 59.25 -88.48 59.23 -89.59 59.21 C-90.54 59.19 -91.49 59.17 -92.47 59.16 C-94.78 59.01 -96.78 58.65 -99 58 C-99 57.01 -99 56.02 -99 55 C-79.2 54.67 -59.4 54.34 -39 54 C-39 53.01 -39 52.02 -39 51 C-38.2 50.69 -37.39 50.38 -36.56 50.06 C-34.11 49.24 -34.11 49.24 -33 48 C-30.67 47.96 -28.33 47.96 -26 48 C-25.75 47.33 -25.5 46.67 -25.24 45.98 C-23.72 42.32 -21.97 38.79 -20.19 35.25 C-19.83 34.53 -19.47 33.81 -19.09 33.07 C-16.52 27.97 -13.87 22.94 -11 18 C-10.61 17.34 -10.23 16.67 -9.83 15.99 C-8.48 13.66 -7.11 11.33 -5.75 9 C-5.3 8.23 -4.85 7.46 -4.39 6.67 C-3.97 5.96 -3.54 5.24 -3.11 4.5 C-2.54 3.53 -2.54 3.53 -1.95 2.53 C-1 1 -1 1 0 0 Z " fill="#175D8D" transform="translate(715,162)"/>
<path d="M0 0 C14.52 0 29.04 0 44 0 C44 0.66 44 1.32 44 2 C37.75 2.88 31.57 3.27 25.26 3.5 C23.21 3.58 21.15 3.67 19.09 3.75 C15.87 3.88 12.66 4 9.44 4.12 C6.32 4.25 3.2 4.37 0.07 4.5 C-0.89 4.54 -1.86 4.57 -2.85 4.61 C-4.19 4.66 -4.19 4.66 -5.56 4.72 C-6.35 4.75 -7.14 4.78 -7.95 4.81 C-10.2 4.94 -10.2 4.94 -13 6 C-13.34 11.45 -13.04 15.58 -10.86 20.7 C-9.39 24.64 -8.63 28.75 -7.75 32.85 C-7 35.98 -6.02 38.95 -5 42 C-4.59 43.75 -4.19 45.5 -3.81 47.25 C-2.25 53.69 0.1 59.72 2.57 65.86 C2.87 66.59 3.17 67.33 3.48 68.09 C3.75 68.75 4.01 69.41 4.29 70.08 C5.01 72.04 5.53 73.97 6 76 C7.7 76.04 7.7 76.04 9.44 76.08 C13.65 76.17 17.86 76.27 22.07 76.37 C23.89 76.42 25.72 76.46 27.54 76.5 C30.16 76.56 32.78 76.62 35.39 76.68 C36.21 76.7 37.03 76.72 37.87 76.73 C41.14 76.82 43.87 76.96 47 78 C48.89 78.22 50.79 78.41 52.69 78.56 C54.18 78.69 54.18 78.69 55.7 78.82 C56.46 78.88 57.22 78.94 58 79 C58 79.66 58 80.32 58 81 C54.9 81.91 52.12 82.13 48.9 82.13 C47.37 82.13 47.37 82.13 45.82 82.14 C44.73 82.14 43.65 82.13 42.52 82.13 C41.4 82.13 40.28 82.13 39.12 82.14 C36.76 82.14 34.39 82.13 32.02 82.13 C28.38 82.13 24.75 82.13 21.11 82.14 C18.81 82.14 16.51 82.13 14.21 82.13 C13.12 82.13 12.03 82.14 10.9 82.14 C9.89 82.14 8.88 82.13 7.85 82.13 C6.96 82.13 6.07 82.13 5.15 82.13 C3 82 3 82 1 81 C1.08 80.09 1.16 79.19 1.25 78.25 C1.26 71.62 -1.49 64.89 -4.52 59.09 C-6.18 55.61 -7.02 52.32 -7.88 48.56 C-9.5 41.7 -11.54 35.1 -13.84 28.43 C-15.13 24.61 -16.26 20.75 -17.32 16.86 C-17.93 14.79 -17.93 14.79 -20 13 C-20 12.01 -20 11.02 -20 10 C-21.98 10.66 -23.96 11.32 -26 12 C-25.34 9.69 -24.68 7.38 -24 5 C-20 5 -20 5 -18.25 6.5 C-17.63 7.24 -17.63 7.24 -17 8 C-17 6.35 -17 4.7 -17 3 C-6.6 2.5 -6.6 2.5 4 2 C2.68 1.34 1.36 0.68 0 0 Z " fill="#053B72" transform="translate(156,10)"/>
<path d="M0 0 C1.68 0.29 3.34 0.62 5 1 C5 1.66 5 2.32 5 3 C6.65 3 8.3 3 10 3 C10 3.99 10 4.98 10 6 C30.79 6 51.58 6 73 6 C73 8.31 73 10.62 73 13 C53.61 16.21 34.58 16.34 15 16 C15 17.32 15 18.64 15 20 C11.23 24.06 8.47 25.57 2.97 25.95 C0.31 26.02 -2.34 26.07 -5 26 C-3.91 22.92 -3.05 20.6 -0.12 18.93 C3.08 17.72 5.55 17 9 17 C9 16.34 9 15.68 9 15 C9.84 14.94 10.69 14.88 11.55 14.82 C12.65 14.73 13.75 14.65 14.88 14.56 C15.97 14.48 17.06 14.4 18.18 14.32 C20.95 14.17 20.95 14.17 23 13 C19.81 11.4 16.35 11.61 12.82 11.38 C9.93 10.99 7.65 10.19 5 9 C5.66 8.34 6.32 7.68 7 7 C6.05 6.75 5.1 6.5 4.12 6.25 C1 5 1 5 -0.38 2.88 C-0.58 2.26 -0.79 1.64 -1 1 C-0.67 0.67 -0.34 0.34 0 0 Z " fill="#042B59" transform="translate(727,273)"/>
<path d="M0 0 C3 4.29 3 4.29 3 7 C3.99 7.5 3.99 7.5 5 8 C1.62 7.75 1.62 7.75 -2 7 C-3.23 4.95 -3.23 4.95 -4 3 C-5.42 2.97 -6.83 2.95 -8.25 2.94 C-9.04 2.93 -9.83 2.91 -10.64 2.9 C-12.97 3 -14.82 3.18 -17 4 C-17.66 4.99 -18.32 5.98 -19 7 C-21.62 7.19 -21.62 7.19 -24 7 C-24 7.66 -24 8.32 -24 9 C-26.64 9.66 -29.28 10.32 -32 11 C-29.36 11.33 -26.72 11.66 -24 12 C-24 12.33 -24 12.66 -24 13 C-24.59 12.99 -25.19 12.99 -25.8 12.98 C-28.53 12.96 -31.27 12.95 -34 12.94 C-34.93 12.93 -35.87 12.92 -36.83 12.91 C-41.06 12.9 -45.17 12.95 -49.36 13.54 C-52.56 13.94 -55.03 13.95 -58.19 13.5 C-61.71 13.07 -64.55 12.96 -68 14 C-68 16.31 -68 18.62 -68 21 C-65.36 21.33 -62.72 21.66 -60 22 C-60 22.33 -60 22.66 -60 23 C-63.44 23.03 -66.87 23.05 -70.31 23.06 C-71.29 23.07 -72.27 23.08 -73.27 23.09 C-74.21 23.09 -75.15 23.09 -76.11 23.1 C-76.98 23.1 -77.84 23.11 -78.73 23.11 C-81 23 -81 23 -84 22 C-84.19 22.84 -84.19 22.84 -84.38 23.71 C-85.04 26.14 -85.89 28.37 -86.88 30.69 C-87.2 31.48 -87.53 32.26 -87.87 33.07 C-89 35 -89 35 -92 36 C-92 37.98 -92 39.96 -92 42 C-92.66 42 -93.32 42 -94 42 C-94 42.99 -94 43.98 -94 45 C-95.49 45.5 -95.49 45.5 -97 46 C-98.46 48.32 -99.78 50.59 -101.06 53 C-104.75 59.88 -104.75 59.88 -107 61 C-105.43 55.08 -102.33 50.33 -99.12 45.19 C-95.61 39.55 -92.39 34.03 -89.88 27.87 C-89 26 -89 26 -86.75 23.38 C-84.4 20.18 -84.7 17.87 -85 14 C-85.99 13.67 -86.98 13.34 -88 13 C-88 12.34 -88 11.68 -88 11 C-106.48 11 -124.96 11 -144 11 C-144.33 11.66 -144.66 12.32 -145 13 C-145 12.34 -145 11.68 -145 11 C-152.59 11 -160.18 11 -168 11 C-168 10.67 -168 10.34 -168 10 C-167.45 10 -166.9 9.99 -166.33 9.99 C-152.8 9.91 -139.28 9.82 -125.75 9.71 C-119.2 9.66 -112.66 9.62 -106.11 9.58 C-71.82 9.51 -71.82 9.51 -37.57 8.09 C-36.39 8.01 -35.2 7.93 -33.98 7.86 C-28.15 7.52 -28.15 7.52 -23 5 C-22.67 4.01 -22.34 3.02 -22 2 C-18.68 -1.34 -15.58 -1.53 -11 -1.81 C-9.78 -1.9 -8.57 -1.99 -7.31 -2.08 C-4.11 -2 -2.59 -1.81 0 0 Z " fill="#052D53" transform="translate(580,386)"/>
<path d="M0 0 C0.66 0.33 1.32 0.66 2 1 C2.31 3.19 2.31 3.19 2 6 C0.36 7.69 -1.31 9.35 -3 11 C-4.82 14.05 -6.15 16.82 -5.69 20.44 C-5.35 21.21 -5.35 21.21 -5 22 C-5.66 21.67 -6.32 21.34 -7 21 C-7 20.34 -7 19.68 -7 19 C-7.99 19.33 -8.98 19.66 -10 20 C-10 18.35 -10 16.7 -10 15 C-20.56 15 -31.12 15 -42 15 C-38.38 19.02 -38.38 19.02 -33.99 19.76 C-32.86 19.86 -32.86 19.86 -31.7 19.96 C-30.91 20.02 -30.13 20.07 -29.31 20.12 C-27.7 20.27 -26.08 20.42 -24.46 20.57 C-23.3 20.68 -23.3 20.68 -22.12 20.78 C-18.28 21.18 -14.71 21.92 -11 23 C-10.5 23.99 -10.5 23.99 -10 25 C-12.91 26.26 -14.8 27 -18 27 C-18 27.66 -18 28.32 -18 29 C-18.66 29 -19.32 29 -20 29 C-20.5 28.03 -20.99 27.07 -21.5 26.07 C-24.23 22.72 -24.52 22.55 -28.53 22.12 C-30.33 22.01 -32.13 21.93 -33.94 21.88 C-54.56 20.52 -54.56 20.52 -59.67 15.29 C-61.4 12.49 -62 10.28 -62 7 C-44.84 7 -27.68 7 -10 7 C-9.67 6.01 -9.34 5.02 -9 4 C-8.5 4.99 -8.5 4.99 -8 6 C-8.33 6.66 -8.66 7.32 -9 8 C-13.1 9.19 -17.24 9.2 -21.49 9.32 C-22.19 9.34 -22.89 9.36 -23.62 9.38 C-25.85 9.44 -28.08 9.5 -30.31 9.56 C-31.83 9.61 -33.35 9.65 -34.87 9.69 C-38.58 9.8 -42.29 9.9 -46 10 C-46 10.66 -46 11.32 -46 12 C-44.37 11.99 -44.37 11.99 -42.71 11.98 C-38.7 11.97 -34.69 11.95 -30.67 11.95 C-28.93 11.94 -27.2 11.93 -25.46 11.92 C-22.96 11.91 -20.47 11.91 -17.97 11.9 C-17.19 11.9 -16.41 11.89 -15.6 11.89 C-13.73 11.89 -11.87 11.94 -10 12 C-9.5 12.5 -9.5 12.5 -9 13 C-8.67 12.01 -8.34 11.02 -8 10 C-5.94 9.31 -5.94 9.31 -4 9 C-3.9 8.07 -3.79 7.14 -3.69 6.19 C-2.99 2.97 -2.52 1.97 0 0 Z " fill="#063159" transform="translate(102,67)"/>
<path d="M0 0 C3.89 3.58 6.33 6.95 8.81 11.69 C9.42 12.83 10.02 13.96 10.64 15.14 C12 18 12 18 12 20 C12.66 20 13.32 20 14 20 C14.33 20.99 14.66 21.98 15 23 C15.66 23.33 16.32 23.66 17 24 C16.34 22.02 15.68 20.04 15 18 C16.99 19.8 18.1 21.19 19.31 23.62 C20.85 26.33 20.85 26.33 24.19 26.81 C25.58 26.91 25.58 26.91 27 27 C26.67 27.99 26.34 28.98 26 30 C34.32 32.77 43.99 32.24 52.69 32.56 C54.33 32.63 54.33 32.63 56.01 32.69 C58.67 32.8 61.34 32.9 64 33 C64 33.33 64 33.66 64 34 C63.34 34.03 62.69 34.05 62.01 34.08 C59.05 34.19 56.09 34.31 53.12 34.44 C52.09 34.48 51.06 34.52 50 34.56 C48.52 34.62 48.52 34.62 47.01 34.68 C46.1 34.72 45.19 34.76 44.25 34.79 C41.97 34.87 41.97 34.87 40 36 C37.96 36.07 35.92 36.08 33.88 36.06 C32.78 36.05 31.68 36.04 30.55 36.04 C29.71 36.02 28.87 36.01 28 36 C28 36.66 28 37.32 28 38 C27.28 38.16 26.56 38.33 25.82 38.5 C20.07 40.14 16.61 41.63 13.51 46.89 C12.53 48.8 11.59 50.74 10.69 52.69 C9.74 54.61 8.78 56.53 7.82 58.45 C7.37 59.38 6.91 60.3 6.44 61.26 C4.27 65.39 1.69 69.2 -1 73 C-1.33 72.34 -1.66 71.68 -2 71 C-0.98 68.77 -0.98 68.77 0.61 66.02 C1.18 65.02 1.75 64.02 2.34 62.99 C2.95 61.94 3.56 60.89 4.19 59.81 C4.78 58.78 5.37 57.75 5.98 56.69 C10.41 48.98 10.41 48.98 12.32 45.81 C14.51 42.17 14.51 42.17 15 38 C13.68 37.34 12.36 36.68 11 36 C11.21 35.31 11.42 34.61 11.64 33.89 C14 21.95 7.39 13.64 1.12 3.95 C0 2 0 2 0 0 Z " fill="#0B5EA6" transform="translate(708,252)"/>
<path d="M0 0 C0.66 0 1.32 0 2 0 C3.17 2.29 4.34 4.58 5.5 6.88 C5.83 7.53 6.17 8.18 6.51 8.85 C9 13.77 9 13.77 9 16 C11.39 16.48 13.78 16.95 16.16 17.43 C17.91 17.78 19.66 18.15 21.4 18.54 C27.62 19.92 33.73 20.38 40.09 20.66 C43 21 43 21 45 23 C44.5 24.48 44.5 24.48 44 26 C43 25.98 42 25.95 40.96 25.93 C39.62 25.91 38.28 25.89 36.94 25.88 C35.63 25.85 34.32 25.83 32.96 25.8 C28.83 26.01 25.87 26.59 22 28 C21.53 28.7 21.05 29.4 20.56 30.12 C19 32 19 32 15.19 32.56 C10.4 32.35 8.42 30.19 5 27 C3.67 26.64 2.34 26.3 1 26 C0.67 25.01 0.34 24.02 0 23 C3 21 3 21 6 21 C5.67 18.36 5.34 15.72 5 13 C4.34 13 3.68 13 3 13 C2.49 11.4 2 9.79 1.5 8.19 C1.22 7.29 0.94 6.4 0.66 5.48 C0 3 0 3 0 0 Z " fill="#0979B1" transform="translate(35,68)"/>
<path d="M0 0 C0.99 0 1.98 0 3 0 C4.46 2.65 5 3.89 5 7 C5.99 7.33 6.98 7.66 8 8 C11.14 13.94 11.14 13.94 10.69 17.44 C10.46 17.95 10.23 18.47 10 19 C9.51 16.53 9.51 16.53 9 14 C8.34 14 7.68 14 7 14 C7.66 17.3 8.32 20.6 9 24 C8.34 24 7.68 24 7 24 C7 23.34 7 22.68 7 22 C4.03 22.33 1.06 22.66 -2 23 C-4.24 27.78 -5.33 31.72 -6 37 C-6.62 39.01 -7.28 41.02 -8 43 C-8.66 43 -9.32 43 -10 43 C-10.15 44.86 -10.15 44.86 -10.31 46.75 C-10.95 52.64 -12.46 58.29 -14 64 C-16.48 64.5 -16.48 64.5 -19 65 C-19 63.68 -19 62.36 -19 61 C-18.01 61 -17.02 61 -16 61 C-15.85 59.05 -15.85 59.05 -15.69 57.06 C-15.23 52.87 -14.18 49.23 -12.77 45.28 C-11.53 41.62 -10.49 37.84 -10 34 C-10.33 33.34 -10.66 32.68 -11 32 C-10.34 31.01 -9.68 30.02 -9 29 C-8.33 26.72 -8.33 26.72 -7.88 24.31 C-7.71 23.5 -7.54 22.7 -7.37 21.86 C-7.25 21.25 -7.12 20.63 -7 20 C-6.34 20 -5.68 20 -5 20 C-4.92 18.74 -4.84 17.48 -4.75 16.19 C-4.14 10.44 -2.14 5.33 0 0 Z " fill="#043D72" transform="translate(28,54)"/>
<path d="M0 0 C1.45 0.03 1.45 0.03 2.94 0.06 C2.94 2.04 2.94 4.02 2.94 6.06 C3.6 6.06 4.26 6.06 4.94 6.06 C6.25 11.44 6.25 11.44 5 13.94 C1.65 15.77 -1.27 15.3 -5.06 15.06 C-5.72 14.73 -6.38 14.4 -7.06 14.06 C-7.06 13.4 -7.06 12.74 -7.06 12.06 C-18.68 11.07 -30.28 10.76 -41.94 10.5 C-43.8 10.46 -45.66 10.41 -47.53 10.37 C-52.04 10.26 -56.55 10.16 -61.06 10.06 C-60.73 9.07 -60.4 8.08 -60.06 7.06 C-34.82 6.57 -34.82 6.57 -9.06 6.06 C-9.06 5.07 -9.06 4.08 -9.06 3.06 C-8.26 2.75 -7.45 2.44 -6.62 2.12 C-1.58 0.03 -1.58 0.03 0 0 Z " fill="#075DA2" transform="translate(685.0625,209.9375)"/>
<path d="M0 0 C1.88 0.12 1.88 0.12 4 1 C4.73 2.98 5.4 4.98 6 7 C7.02 6.99 8.04 6.98 9.09 6.96 C22.08 6.87 35.03 7.38 48 8 C48 8.33 48 8.66 48 9 C34.32 9.82 20.71 10.12 7 10 C7 11.65 7 13.3 7 15 C6.01 14.67 5.02 14.34 4 14 C4 13.34 4 12.68 4 12 C2.68 12 1.36 12 0 12 C-0.1 12.7 -0.2 13.4 -0.3 14.12 C-1.3 20.48 -2.71 25.45 -6 31 C-6.66 31.33 -7.32 31.66 -8 32 C-8.73 33.98 -9.4 35.98 -10 38 C-10.99 38 -11.98 38 -13 38 C-13.25 38.86 -13.5 39.72 -13.76 40.6 C-15.08 44.22 -16.76 47.13 -18.81 50.38 C-19.17 50.94 -19.52 51.5 -19.88 52.08 C-20.92 53.72 -21.96 55.36 -23 57 C-24 58.6 -25 60.21 -26 61.81 C-26.66 62.86 -27.32 63.92 -28 65 C-28.33 64.34 -28.66 63.68 -29 63 C-27.97 60.73 -27.97 60.73 -26.35 57.9 C-25.47 56.34 -25.47 56.34 -24.57 54.75 C-23.93 53.63 -23.28 52.52 -22.62 51.38 C-21.98 50.24 -21.34 49.11 -20.68 47.94 C-17.9 43.02 -15.09 38.12 -12.17 33.28 C-7.74 25.88 -4.87 19.4 -3.54 10.79 C-3 8 -3 8 -1 5 C-0.62 3.34 -0.27 1.68 0 0 Z " fill="#1AA5D5" transform="translate(132,3)"/>
<path d="M0 0 C5.29 9.65 7.77 21.1 8 32 C7.67 31.34 7.34 30.68 7 30 C6.01 29.67 5.02 29.34 4 29 C4 24.71 4 20.42 4 16 C2.68 15.67 1.36 15.34 0 15 C-0.99 17.48 -0.99 17.48 -2 20 C-2.66 20 -3.32 20 -4 20 C-3.98 20.63 -3.95 21.25 -3.93 21.9 C-3.9 23.12 -3.9 23.12 -3.88 24.38 C-3.85 25.19 -3.83 26 -3.8 26.84 C-4 29 -4 29 -6 31 C-6.46 33.2 -6.46 33.2 -6.62 35.62 C-6.7 36.44 -6.77 37.26 -6.85 38.1 C-6.93 39.04 -6.93 39.04 -7 40 C-8.49 40.5 -8.49 40.5 -10 41 C-10.33 42.98 -10.66 44.96 -11 47 C-11.66 47 -12.32 47 -13 47 C-13 47.99 -13 48.98 -13 50 C-13.66 50 -14.32 50 -15 50 C-14.35 44.14 -12.86 38.78 -11.09 33.16 C-10.81 32.24 -10.52 31.32 -10.23 30.38 C-9.63 28.44 -9.03 26.51 -8.43 24.58 C-7.5 21.62 -6.58 18.65 -5.66 15.68 C-5.08 13.8 -4.49 11.92 -3.91 10.04 C-3.63 9.15 -3.35 8.26 -3.07 7.34 C-2.81 6.52 -2.56 5.7 -2.29 4.86 C-2.07 4.14 -1.84 3.41 -1.61 2.67 C-1 1 -1 1 0 0 Z " fill="#01244F" transform="translate(744,312)"/>
<path d="M0 0 C1.07 3.23 0.93 5.02 -0.21 8.2 C-0.49 8.99 -0.76 9.78 -1.05 10.6 C-1.34 11.43 -1.63 12.27 -1.94 13.12 C-5.91 24.28 -5.91 24.28 -3.83 35.52 C-2.94 37.11 -2 38.67 -1 40.19 C-0.67 40.79 -0.34 41.38 0 42 C-0.33 42.66 -0.66 43.32 -1 44 C-2.98 41.03 -4.96 38.06 -7 35 C-7.31 37.1 -7.31 37.1 -7.62 39.25 C-7.8 40.43 -7.8 40.43 -7.98 41.64 C-8 44.36 -7.47 45.73 -6 48 C-5.34 48.33 -4.68 48.66 -4 49 C-4.33 49.99 -4.66 50.98 -5 52 C-5.99 52 -6.98 52 -8 52 C-8 51.01 -8 50.02 -8 49 C-8.66 49 -9.32 49 -10 49 C-10 50.32 -10 51.64 -10 53 C-10.99 53.5 -10.99 53.5 -12 54 C-12.91 56.11 -12.91 56.11 -13.62 58.56 C-13.89 59.39 -14.15 60.22 -14.41 61.07 C-14.61 61.7 -14.8 62.34 -15 63 C-16.65 63 -18.3 63 -20 63 C-21.72 59.02 -23.41 55.04 -25 51 C-20.12 55.75 -20.12 55.75 -19 58 C-15.1 49.29 -12.59 40.16 -9.9 31.02 C-8.2 25.3 -6.44 19.59 -4.69 13.88 C-4.34 12.73 -3.99 11.59 -3.63 10.41 C-3.14 8.81 -3.14 8.81 -2.64 7.18 C-2.34 6.23 -2.05 5.28 -1.75 4.3 C-1 2 -1 2 0 0 Z " fill="#2887B1" transform="translate(726,364)"/>
<path d="M0 0 C3 1 3 1 4.72 4.14 C5.35 5.53 5.97 6.92 6.57 8.32 C6.9 9.05 7.23 9.78 7.57 10.53 C8.62 12.87 9.65 15.22 10.69 17.56 C11.4 19.15 12.1 20.73 12.81 22.32 C14.55 26.21 16.28 30.1 18 34 C19.35 33.97 19.35 33.97 20.73 33.95 C24.11 33.91 27.48 33.91 30.86 33.93 C32.32 33.94 33.77 33.92 35.23 33.89 C47.29 33.67 47.29 33.67 51.44 36.9 C53.23 39.18 54.64 41.44 56 44 C56.66 44.94 57.32 45.88 58 46.85 C58.71 47.94 58.71 47.94 59.44 49.06 C60.18 50.19 60.18 50.19 60.93 51.35 C61.29 51.89 61.64 52.44 62 53 C61.5 53.99 61.5 53.99 61 55 C59.75 53.29 58.5 51.58 57.25 49.88 C56.21 48.45 56.21 48.45 55.14 46.99 C53 44 53 44 51.34 40.86 C49.23 37.67 49.23 37.67 45.52 37.23 C44.14 37.19 42.77 37.18 41.39 37.2 C40.66 37.18 39.94 37.17 39.19 37.15 C36.87 37.12 34.56 37.12 32.25 37.12 C30.68 37.11 29.11 37.09 27.54 37.06 C23.69 37.01 19.85 37 16 37 C15.69 36.18 15.39 35.36 15.08 34.52 C12.39 27.42 9.5 20.51 6.19 13.69 C5.78 12.84 5.37 11.99 4.96 11.12 C3.97 9.08 2.99 7.04 2 5 C-0.28 10.8 -2.07 16.59 -3.62 22.62 C-3.84 23.44 -4.06 24.26 -4.28 25.11 C-5.4 29.39 -6.36 33.62 -7 38 C-7.66 38 -8.32 38 -9 38 C-8.58 30.37 -6.49 23.53 -4.28 16.27 C-2.65 10.89 -1.29 5.46 0 0 Z " fill="#32A1D1" transform="translate(639,360)"/>
<path d="M0 0 C6.06 0.12 12.13 0.24 18.19 0.37 C20.25 0.42 22.31 0.46 24.37 0.5 C27.35 0.56 30.32 0.62 33.3 0.68 C34.21 0.7 35.11 0.72 36.05 0.73 C42.4 0.88 48.68 1.35 55 2 C55 2.66 55 3.32 55 4 C51.88 4.91 49.11 5.12 45.86 5.11 C44.84 5.11 43.82 5.11 42.77 5.11 C41.68 5.11 40.58 5.1 39.45 5.1 C38.33 5.1 37.2 5.09 36.04 5.09 C32.44 5.09 28.85 5.08 25.25 5.06 C22.81 5.06 20.37 5.05 17.93 5.05 C11.96 5.04 5.98 5.02 0 5 C0 3.35 0 1.7 0 0 Z " fill="#0E77AA" transform="translate(159,87)"/>
<path d="M0 0 C3.25 0.13 3.25 0.13 7 1 C9.19 3.88 9.19 3.88 11 7 C13.11 8.83 13.11 8.83 15 10 C12.03 10 9.06 10 6 10 C5.57 9.03 5.13 8.06 4.69 7.06 C3.3 3.72 3.3 3.72 0 3 C-0.12 4.03 -0.25 5.06 -0.38 6.12 C-0.94 9.65 -1.85 12.63 -3 16 C-3.51 18.34 -3.99 20.69 -4.44 23.05 C-5 25 -5 25 -7 27 C-7.33 25.02 -7.66 23.04 -8 21 C-8.99 21.99 -9.98 22.98 -11 24 C-10.67 18.72 -10.34 13.44 -10 8 C-8.68 7.67 -7.36 7.34 -6 7 C-6 6.34 -6 5.68 -6 5 C-4.34 3.98 -2.68 2.98 -1 2 C-0.67 1.34 -0.34 0.68 0 0 Z " fill="#02295A" transform="translate(132,0)"/>
<path d="M0 0 C-0.01 1.11 -0.01 2.21 -0.02 3.36 C-0.08 7.31 -0.08 7.31 1 11 C1.65 11.27 2.3 11.54 2.97 11.82 C5 13 5 13 5.79 15.09 C5.99 16.28 5.99 16.28 6.19 17.5 C6.75 20.86 6.75 20.86 8 24 C9.32 23.67 10.64 23.34 12 23 C11.98 21.89 11.96 20.77 11.94 19.62 C12 16 12 16 13 14 C13.66 14 14.32 14 15 14 C15.66 11.03 16.32 8.06 17 5 C18.4 10.6 16.77 14.72 15.25 20.19 C14.85 21.72 14.85 21.72 14.45 23.29 C14.18 24.26 13.91 25.23 13.64 26.23 C13.28 27.57 13.28 27.57 12.91 28.93 C12.61 29.61 12.31 30.3 12 31 C11.01 31.33 10.02 31.66 9 32 C-2.01 11.96 -2.01 11.96 -4 2 C-11.59 2 -19.18 2 -27 2 C-27 1.67 -27 1.34 -27 1 C-17.98 -0.07 -9.06 -0.1 0 0 Z " fill="#002248" transform="translate(612,393)"/>
<path d="M0 0 C15.18 0.33 30.36 0.66 46 1 C46 1.33 46 1.66 46 2 C45.34 2.03 44.69 2.05 44.01 2.08 C41.05 2.19 38.09 2.31 35.12 2.44 C34.09 2.48 33.06 2.52 32 2.56 C31.01 2.6 30.02 2.64 29.01 2.68 C28.1 2.72 27.19 2.76 26.25 2.79 C23.97 2.87 23.97 2.87 22 4 C19.96 4.07 17.92 4.08 15.88 4.06 C14.78 4.05 13.68 4.04 12.55 4.04 C11.29 4.02 11.29 4.02 10 4 C10 4.66 10 5.32 10 6 C8.92 6.25 8.92 6.25 7.82 6.5 C2.07 8.14 -1.39 9.63 -4.49 14.89 C-5.47 16.8 -6.41 18.74 -7.31 20.69 C-8.26 22.61 -9.22 24.53 -10.18 26.45 C-10.63 27.38 -11.09 28.3 -11.56 29.26 C-13.73 33.39 -16.31 37.2 -19 41 C-19.33 40.34 -19.66 39.68 -20 39 C-19.02 36.82 -19.02 36.82 -17.46 34.12 C-16.9 33.14 -16.34 32.15 -15.76 31.14 C-15.16 30.1 -14.56 29.07 -13.94 28 C-13.36 27 -12.79 25.99 -12.2 24.96 C-9.94 21.02 -7.68 17.08 -5.26 13.23 C-4.72 12.37 -4.18 11.51 -3.63 10.62 C-3.15 9.87 -2.66 9.12 -2.17 8.35 C-0.62 5.52 -0.62 5.52 0 0 Z " fill="#1D84BE" transform="translate(726,284)"/>
<path d="M0 0 C0.66 0.33 1.32 0.66 2 1 C2.41 3.5 2.41 3.5 2.62 6.56 C2.7 7.57 2.77 8.59 2.85 9.63 C2.9 10.41 2.95 11.19 3 12 C-2.38 13.19 -7.45 14.29 -13 14 C-12.89 12.21 -12.76 10.42 -12.62 8.62 C-12.56 7.63 -12.49 6.63 -12.41 5.6 C-12 3 -12 3 -10 1 C-7.87 0.84 -7.87 0.84 -5.44 0.94 C-3.96 0.99 -2.48 1.02 -1 1 C-0.67 0.67 -0.34 0.34 0 0 Z " fill="#032950" transform="translate(36,75)"/>
<path d="M0 0 C0.66 0 1.32 0 2 0 C1.67 2.97 1.34 5.94 1 9 C0.34 9 -0.32 9 -1 9 C3.5 22.09 11.17 33.9 18.57 45.52 C20 48 20 48 20 50 C19.34 50 18.68 50 18 50 C16.53 47.9 15.19 45.82 13.88 43.62 C13.5 43.02 13.13 42.42 12.75 41.8 C10 37.27 10 37.27 10 35 C8.68 34.67 7.36 34.34 6 34 C6 33.01 6 32.02 6 31 C5.34 31 4.68 31 4 31 C3.01 28.03 2.02 25.06 1 22 C0.34 22 -0.32 22 -1 22 C-1.33 22.99 -1.66 23.98 -2 25 C-2.33 23.35 -2.66 21.7 -3 20 C-2.34 20 -1.68 20 -1 20 C-1.66 19.01 -2.32 18.02 -3 17 C-3.41 13.86 -3.41 13.86 -3.62 10.31 C-3.7 9.13 -3.77 7.95 -3.85 6.74 C-3.9 5.83 -3.95 4.93 -4 4 C-2.68 3.67 -1.36 3.34 0 3 C0 2.01 0 1.02 0 0 Z " fill="#012143" transform="translate(579,400)"/>
<path d="M0 0 C1.83 0.06 3.66 0.06 5.49 0.04 C6.59 0.04 7.69 0.05 8.82 0.05 C11.14 0.06 13.45 0.04 15.77 -0.01 C24.01 0.1 24.01 0.1 26.87 2.7 C28.99 5.99 30.15 9.19 31 13 C27.73 10.22 26.07 6.7 24 3 C5.62 2.58 5.62 2.58 -12.59 4.68 C-16.08 5.14 -18.73 4.22 -22 3 C-24.66 2.56 -27.31 2.28 -30 2 C-30 1.67 -30 1.34 -30 1 C-21.41 -1.88 -8.63 -4.32 0 0 Z " fill="#1BB4DA" transform="translate(582,395)"/>
<path d="M0 0 C1.32 0 2.64 0 4 0 C4 0.99 4 1.98 4 3 C4.66 3 5.32 3 6 3 C7.31 8.37 7.31 8.37 6.06 10.88 C2.71 12.7 -0.21 12.24 -4 12 C-4.66 11.67 -5.32 11.34 -6 11 C-6 10.34 -6 9.68 -6 9 C-12.93 8.5 -12.93 8.5 -20 8 C-20 7.34 -20 6.68 -20 6 C-20.66 5.67 -21.32 5.34 -22 5 C-12.1 4.5 -12.1 4.5 -2 4 C-1.34 2.68 -0.68 1.36 0 0 Z " fill="#0460B3" transform="translate(684,213)"/>
<path d="M0 0 C4.58 -0.44 8.53 -0.12 13 1 C13 3.64 13 6.28 13 9 C12.48 8.83 11.97 8.67 11.44 8.5 C8.25 7.85 5.25 7.88 2 8 C1.67 8.33 1.34 8.66 1 9 C-1.86 9.07 -4.7 9.09 -7.56 9.06 C-8.37 9.06 -9.18 9.05 -10.01 9.05 C-12 9.04 -14 9.02 -16 9 C-16.33 8.01 -16.66 7.02 -17 6 C-16.11 6.02 -16.11 6.02 -15.21 6.04 C-8.99 6.28 -8.99 6.28 -3 5 C-2.57 4.15 -2.13 3.31 -1.69 2.44 C-1.13 1.63 -0.57 0.83 0 0 Z " fill="#013973" transform="translate(787,386)"/>
<path d="M0 0 C8.58 0 17.16 0 26 0 C26 0.33 26 0.66 26 1 C12.63 1.99 12.63 1.99 -1 3 C-1 3.99 -1 4.98 -1 6 C-2.32 6.33 -3.64 6.66 -5 7 C-5 8.65 -5 10.3 -5 12 C-8.57 11.31 -12.1 10.53 -15.62 9.62 C-16.57 9.39 -17.51 9.16 -18.48 8.91 C-21.1 7.96 -22.36 7.24 -24 5 C-24 4.01 -24 3.02 -24 2 C-23.02 2.31 -23.02 2.31 -22.02 2.62 C-17.37 4.06 -12.85 5.36 -8 6 C-7.67 5.34 -7.34 4.68 -7 4 C-4.69 3.27 -2.35 2.6 0 2 C0 1.34 0 0.68 0 0 Z " fill="#014374" transform="translate(580,397)"/>
<path d="M0 0 C0.99 0 1.98 0 3 0 C1.07 12.67 1.07 12.67 -1 18 C-1.66 18 -2.32 18 -3 18 C-3.1 19.24 -3.21 20.47 -3.31 21.75 C-3.95 27.64 -5.46 33.29 -7 39 C-9.48 39.5 -9.48 39.5 -12 40 C-12 38.68 -12 37.36 -12 36 C-11.01 36 -10.02 36 -9 36 C-8.85 34.05 -8.85 34.05 -8.69 32.06 C-8.23 27.87 -7.18 24.23 -5.77 20.28 C-4.53 16.62 -3.49 12.84 -3 9 C-3.33 8.34 -3.66 7.68 -4 7 C-3.22 5.27 -3.22 5.27 -2.06 3.38 C-1.38 2.26 -0.7 1.15 0 0 Z " fill="#0B5692" transform="translate(21,79)"/>
<path d="M0 0 C2.97 0 5.94 0 9 0 C8.67 0.99 8.34 1.98 8 3 C9.72 2.99 9.72 2.99 11.48 2.98 C15.8 2.97 20.11 2.95 24.43 2.95 C26.29 2.94 28.15 2.93 30 2.92 C57.6 2.8 57.6 2.8 62 5 C62 5.66 62 6.32 62 7 C65.96 7 69.92 7 74 7 C74 7.99 74 8.98 74 10 C72.23 10.03 70.46 10.05 68.69 10.06 C67.7 10.07 66.72 10.09 65.7 10.1 C63 10 63 10 60 9 C60 8.34 60 7.68 60 7 C59.34 7 58.68 7 58 7 C58 6.34 58 5.68 58 5 C57.33 4.99 56.66 4.98 55.98 4.97 C49.03 4.86 42.09 4.75 35.15 4.63 C32.56 4.58 29.96 4.54 27.37 4.5 C23.65 4.44 19.93 4.38 16.2 4.32 C15.04 4.3 13.88 4.28 12.69 4.27 C11.61 4.25 10.52 4.23 9.41 4.21 C8.46 4.19 7.51 4.17 6.53 4.16 C4.22 4.01 2.22 3.65 0 3 C0 2.01 0 1.02 0 0 Z " fill="#01366E" transform="translate(616,217)"/>
<path d="M0 0 C0.33 0.66 0.66 1.32 1 2 C0.67 2.99 0.34 3.98 0 5 C-0.66 5 -1.32 5 -2 5 C-2 5.66 -2 6.32 -2 7 C-2.99 7 -3.98 7 -5 7 C-5.19 7.84 -5.19 7.84 -5.38 8.71 C-6.04 11.14 -6.89 13.37 -7.88 15.69 C-8.2 16.48 -8.53 17.26 -8.87 18.07 C-10 20 -10 20 -13 21 C-13 22.98 -13 24.96 -13 27 C-13.66 27 -14.32 27 -15 27 C-15 27.99 -15 28.98 -15 30 C-15.99 30.33 -16.98 30.66 -18 31 C-19.46 33.32 -20.78 35.59 -22.06 38 C-25.75 44.88 -25.75 44.88 -28 46 C-26.43 40.08 -23.33 35.33 -20.12 30.19 C-16.62 24.56 -13.39 19.04 -10.87 12.9 C-8.5 7.71 -3.97 3.97 0 0 Z " fill="#336E8F" transform="translate(501,401)"/>
<path d="M0 0 C1.68 0.29 3.34 0.62 5 1 C5 1.66 5 2.32 5 3 C6.65 3 8.3 3 10 3 C10 3.99 10 4.98 10 6 C20.89 6 31.78 6 43 6 C43 6.33 43 6.66 43 7 C41.83 7.04 41.83 7.04 40.65 7.08 C37.14 7.19 33.63 7.31 30.12 7.44 C28.9 7.48 27.68 7.52 26.42 7.56 C25.25 7.6 24.08 7.64 22.88 7.68 C21.8 7.72 20.73 7.76 19.61 7.79 C17.02 7.83 17.02 7.83 15 9 C17.97 9.5 17.97 9.5 21 10 C21 10.33 21 10.66 21 11 C19.27 11.05 17.54 11.09 15.81 11.12 C14.85 11.15 13.89 11.17 12.89 11.2 C9.87 10.99 7.73 10.27 5 9 C5.66 8.34 6.32 7.68 7 7 C6.05 6.75 5.1 6.5 4.12 6.25 C1 5 1 5 -0.38 2.88 C-0.58 2.26 -0.79 1.64 -1 1 C-0.67 0.67 -0.34 0.34 0 0 Z " fill="#063666" transform="translate(727,273)"/>
<path d="M0 0 C7.1 1.02 14.08 2.1 21 4 C21 4.66 21 5.32 21 6 C20.06 6.09 20.06 6.09 19.1 6.18 C18.28 6.27 17.47 6.35 16.62 6.44 C15.81 6.52 15 6.6 14.16 6.68 C11.96 6.89 11.96 6.89 10 8 C2.53 8.36 2.53 8.36 -1 6 C-0.67 4.02 -0.34 2.04 0 0 Z " fill="#10F5FA" transform="translate(43,86)"/>
<path d="M0 0 C0.99 0 1.98 0 3 0 C3.7 1.41 4.39 2.83 5.06 4.25 C5.45 5.04 5.83 5.83 6.22 6.64 C7.09 9.26 6.93 10.45 6 13 C4.35 11.35 2.7 9.7 1 8 C0.06 12.31 -0.48 16.62 -1 21 C-2.65 21.33 -4.3 21.66 -6 22 C-6.33 21.34 -6.66 20.68 -7 20 C-6.34 20 -5.68 20 -5 20 C-4.92 18.74 -4.84 17.48 -4.75 16.19 C-4.14 10.44 -2.14 5.33 0 0 Z " fill="#095598" transform="translate(28,54)"/>
<path d="M0 0 C1.1 0.01 1.1 0.01 2.23 0.03 C4.03 0.05 5.83 0.09 7.62 0.12 C7.62 0.45 7.62 0.78 7.62 1.12 C6.37 1.21 5.12 1.3 3.83 1.39 C2.18 1.53 0.53 1.67 -1.12 1.81 C-1.95 1.87 -2.78 1.92 -3.62 1.97 C-8.8 2.4 -8.8 2.4 -12.71 5.67 C-13.53 6.88 -13.53 6.88 -14.38 8.12 C-18.23 8.75 -20.73 9.15 -24.09 7.06 C-25.56 5.8 -26.97 4.47 -28.38 3.12 C-30.59 1.85 -30.59 1.85 -32.38 1.12 C-30.7 1.37 -30.7 1.37 -29 1.62 C-20.18 2.73 -20.18 2.73 -11.59 1.12 C-7.61 -0.11 -4.13 -0.1 0 0 Z " fill="#005893" transform="translate(68.375,91.875)"/>
<path d="M0 0 C0.66 0.66 1.32 1.32 2 2 C8.75 4.22 15.06 4.09 22 3 C18.38 6 18.38 6 15 6 C14.67 6.99 14.34 7.98 14 9 C10.17 8.6 7.1 7.64 3.62 6.06 C-3.28 3.15 -10.6 2.7 -18 2 C-18 1.67 -18 1.34 -18 1 C-11.98 0.31 -6.06 -0.32 0 0 Z " fill="#0572AB" transform="translate(558,395)"/>
<path d="M0 0 C1.4 5.6 -0.23 9.72 -1.75 15.19 C-2.02 16.21 -2.28 17.23 -2.55 18.29 C-2.95 19.74 -2.95 19.74 -3.36 21.23 C-3.6 22.12 -3.84 23.01 -4.09 23.93 C-4.39 24.61 -4.69 25.3 -5 26 C-5.99 26.33 -6.98 26.66 -8 27 C-9.36 24.55 -10.72 22.09 -12.06 19.62 C-12.45 18.93 -12.84 18.23 -13.24 17.51 C-14.22 15.7 -15.12 13.85 -16 12 C-15.67 11.34 -15.34 10.68 -15 10 C-13.68 12.31 -12.36 14.62 -11 17 C-10.34 17 -9.68 17 -9 17 C-9 17.66 -9 18.32 -9 19 C-7.68 18.67 -6.36 18.34 -5 18 C-5.02 16.89 -5.04 15.77 -5.06 14.62 C-5 11 -5 11 -4 9 C-3.34 9 -2.68 9 -2 9 C-1.34 6.03 -0.68 3.06 0 0 Z " fill="#2880AF" transform="translate(629,398)"/>
<path d="M0 0 C0.85 2.42 1.12 3.64 0.29 6.11 C-0.07 6.79 -0.44 7.48 -0.81 8.19 C-1.17 8.88 -1.53 9.58 -1.89 10.29 C-3 12 -3 12 -5 13 C-5.73 14.98 -6.4 16.98 -7 19 C-7.99 19 -8.98 19 -10 19 C-10.38 20.29 -10.38 20.29 -10.76 21.6 C-12.08 25.22 -13.76 28.13 -15.81 31.38 C-16.17 31.94 -16.52 32.5 -16.88 33.08 C-17.92 34.72 -18.96 36.36 -20 38 C-21 39.6 -22 41.21 -23 42.81 C-23.66 43.86 -24.32 44.92 -25 46 C-25.33 45.34 -25.66 44.68 -26 44 C-24.91 41.62 -24.91 41.62 -23.21 38.65 C-22.6 37.57 -21.99 36.49 -21.36 35.38 C-20.7 34.24 -20.05 33.11 -19.38 31.94 C-18.11 29.72 -16.85 27.5 -15.59 25.28 C-14.67 23.68 -14.67 23.68 -13.74 22.05 C-11.46 18.05 -9.22 14.03 -7 10 C-6.01 10.33 -5.02 10.66 -4 11 C-3.9 10.3 -3.79 9.6 -3.69 8.88 C-2.91 5.61 -1.58 2.95 0 0 Z " fill="#2C8FC1" transform="translate(129,22)"/>
<path d="M0 0 C-1.46 5.31 -3.98 9.46 -7 14 C-9.74 11.7 -10.9 10.39 -11.81 6.88 C-12 4 -12 4 -11 2 C-7.22 0.45 -4.08 -0.24 0 0 Z " fill="#002345" transform="translate(13,92)"/>
<path d="M0 0 C3.33 0.17 4.94 0.43 7.69 2.19 C7.69 3.18 7.69 4.17 7.69 5.19 C-2.01 5.38 -11.64 4.78 -21.31 4.19 C-21.31 3.2 -21.31 2.21 -21.31 1.19 C-20.1 1.2 -18.88 1.21 -17.63 1.22 C-16.04 1.23 -14.46 1.24 -12.88 1.25 C-12.07 1.26 -11.27 1.27 -10.44 1.28 C-8.4 1.28 -6.36 1.24 -4.31 1.19 C-3.31 0.19 -3.31 0.19 0 0 Z " fill="#1AC5EC" transform="translate(792.3125,392.8125)"/>
<path d="M0 0 C3.04 0.49 6.02 1.23 9 2 C9.12 5.38 9.12 5.38 9 9 C8.34 9.66 7.68 10.32 7 11 C6.73 10.36 6.47 9.72 6.2 9.07 C5.84 8.24 5.49 7.41 5.12 6.56 C4.78 5.74 4.43 4.92 4.07 4.07 C3.18 1.84 3.18 1.84 1 1 C0.9 1.93 0.79 2.86 0.69 3.81 C-0.04 8.99 -1.56 13.98 -3 19 C-3.66 19 -4.32 19 -5 19 C-5.33 15.37 -5.66 11.74 -6 8 C-5.34 8 -4.68 8 -4 8 C-3.53 6.87 -3.05 5.73 -2.56 4.56 C-1 1 -1 1 0 0 Z " fill="#022C53" transform="translate(638,359)"/>
<path d="M0 0 C15.18 0.33 30.36 0.66 46 1 C46 1.33 46 1.66 46 2 C44.21 2.08 44.21 2.08 42.39 2.17 C37.97 2.37 33.55 2.59 29.13 2.8 C27.22 2.89 25.3 2.98 23.39 3.07 C20.64 3.2 17.89 3.33 15.14 3.46 C14.29 3.5 13.43 3.54 12.55 3.58 C11.75 3.62 10.95 3.66 10.13 3.7 C9.07 3.75 9.07 3.75 8 3.8 C3.94 4.2 1.72 4.88 -1 8 C-0.67 5.36 -0.34 2.72 0 0 Z " fill="#2DD0F7" transform="translate(726,284)"/>
<path d="M0 0 C2.29 -0.05 4.58 -0.09 6.88 -0.12 C8.79 -0.16 8.79 -0.16 10.74 -0.2 C14 0 14 0 16 2 C15.01 2.5 15.01 2.5 14 3 C14.33 4.65 14.66 6.3 15 8 C13.23 7.74 11.46 7.47 9.69 7.19 C8.21 6.96 8.21 6.96 6.7 6.73 C3.82 5.95 2.76 5.35 1 3 C0.67 2.01 0.34 1.02 0 0 Z " fill="#05467E" transform="translate(42,79)"/>
<path d="M0 0 C2.75 2.75 3.3 5.91 4.31 9.56 C4.75 11.1 5.18 12.64 5.62 14.17 C5.85 14.97 6.07 15.76 6.3 16.58 C7 18.98 7.73 21.37 8.47 23.77 C8.82 24.91 8.82 24.91 9.18 26.08 C9.64 27.54 10.1 29 10.56 30.47 C12.42 36.58 12.42 36.58 11 40 C10.67 38.02 10.34 36.04 10 34 C9.34 34 8.68 34 8 34 C5.66 29 4.32 24.43 3.44 19 C2.77 15 2.04 11.15 0.91 7.25 C0 4 0 4 0 0 Z " fill="#2176B0" transform="translate(747,318)"/>
<path d="M0 0 C4.18 -0.69 7.84 -0.9 12 0 C15.54 3.12 17.64 6.95 20 11 C21.47 13.25 22.99 15.46 24.5 17.69 C25.67 19.46 26.84 21.23 28 23 C27.34 23.33 26.68 23.66 26 24 C26 23.34 26 22.68 26 22 C25.01 21.67 24.02 21.34 23 21 C21.5 18.5 21.5 18.5 20 16 C19.01 15.67 18.02 15.34 17 15 C15.83 13.04 15.83 13.04 14.81 10.62 C14.47 9.83 14.12 9.04 13.77 8.23 C13 6 13 6 13 3 C9.99 2 7.96 1.9 4.81 1.94 C3.91 1.95 3.01 1.96 2.08 1.96 C1.05 1.98 1.05 1.98 0 2 C0 1.34 0 0.68 0 0 Z " fill="#012F5A" transform="translate(676,397)"/>
<path d="M0 0 C1.65 0 3.3 0 5 0 C4.01 0.33 3.02 0.66 2 1 C2.33 5.95 2.66 10.9 3 16 C2.34 14.68 1.68 13.36 1 12 C-1.03 10.73 -1.03 10.73 -3 10 C-3 9.01 -3 8.02 -3 7 C-4.98 7.66 -6.96 8.32 -9 9 C-8.34 6.69 -7.68 4.38 -7 2 C-3 2 -3 2 -1.25 3.5 C-0.63 4.24 -0.63 4.24 0 5 C0 3.35 0 1.7 0 0 Z " fill="#044783" transform="translate(139,13)"/>
<path d="M0 0 C6.88 0.88 6.88 0.88 8 2 C8.53 4.54 8.96 7.09 9.4 9.65 C9.83 12.17 9.83 12.17 12 14 C11.62 16.12 11.62 16.12 11 18 C8.17 14.57 5.64 11.06 3.25 7.31 C2.64 6.36 2.02 5.41 1.39 4.43 C0 2 0 2 0 0 Z " fill="#00173C" transform="translate(588,430)"/>
<path d="M0 0 C0.66 0.33 1.32 0.66 2 1 C1.3 4.97 -0.63 8.27 -2.56 11.75 C-2.89 12.35 -3.22 12.95 -3.56 13.57 C-4.37 15.05 -5.18 16.53 -6 18 C-6.66 18 -7.32 18 -8 18 C-7.38 8.19 -7.38 8.19 -4 4 C-3.34 4 -2.68 4 -2 4 C-1.34 2.68 -0.68 1.36 0 0 Z " fill="#001C3E" transform="translate(700,195)"/>
<path d="M0 0 C0.66 0 1.32 0 2 0 C0.27 4.97 -2.43 9.31 -5.12 13.81 C-5.59 14.6 -6.06 15.39 -6.54 16.2 C-7.69 18.14 -8.84 20.07 -10 22 C-11 19 -11 19 -10 16 C-9.34 16 -8.68 16 -8 16 C-7.94 15.41 -7.88 14.82 -7.82 14.21 C-7.38 10.09 -6.91 6.04 -6 2 C-4.68 2.33 -3.36 2.66 -2 3 C-1.34 2.01 -0.68 1.02 0 0 Z " fill="#001F45" transform="translate(715,158)"/>
<path d="M0 0 C1.95 0.68 1.95 0.68 4 2 C4.61 4.38 4.61 4.38 4.75 7.12 C4.81 8.04 4.86 8.95 4.92 9.88 C4.95 10.58 4.97 11.28 5 12 C2.36 12 -0.28 12 -3 12 C-2.49 7.68 -1.8 3.97 0 0 Z " fill="#00244C" transform="translate(29,62)"/>
<path d="M0 0 C3.44 0.44 3.44 0.44 5.38 1.94 C5.73 2.43 6.08 2.93 6.44 3.44 C6.11 4.43 5.78 5.42 5.44 6.44 C4.45 6.11 3.46 5.78 2.44 5.44 C-1.15 5.27 -1.15 5.27 -4.56 5.44 C-4.89 5.77 -5.22 6.1 -5.56 6.44 C-8.43 6.51 -11.26 6.53 -14.12 6.5 C-14.93 6.5 -15.74 6.49 -16.57 6.49 C-18.57 6.47 -20.56 6.46 -22.56 6.44 C-22.56 6.11 -22.56 5.78 -22.56 5.44 C-21.53 5.41 -20.49 5.39 -19.42 5.36 C-18.05 5.3 -16.68 5.25 -15.31 5.19 C-14.63 5.17 -13.95 5.16 -13.25 5.14 C-9.76 4.98 -7.94 4.78 -5.3 2.42 C-3.56 0.44 -3.56 0.44 0 0 Z " fill="#016FB3" transform="translate(793.5625,388.5625)"/>
<path d="M0 0 C2 3 2 3 1.38 6.69 C0.92 8.46 0.46 10.23 0 12 C-0.32 13.34 -0.64 14.67 -0.96 16.01 C-1.31 17.44 -1.65 18.88 -2 20.31 C-2.17 21.01 -2.33 21.7 -2.5 22.41 C-3.35 25.83 -4.24 28.94 -6 32 C-6.66 32 -7.32 32 -8 32 C-7.67 29.69 -7.34 27.38 -7 25 C-6.34 25 -5.68 25 -5 25 C-4.97 24.45 -4.95 23.9 -4.92 23.34 C-4.34 15.26 -2.22 7.75 0 0 Z " fill="#002C57" transform="translate(637,373)"/>
<path d="M0 0 C0.66 0 1.32 0 2 0 C0.86 7.73 -1.11 14.74 -4 22 C-7.6 18.58 -9.66 15.34 -12 11 C-8.91 12.39 -7.51 13.49 -5 16 C-3.35 10.72 -1.7 5.44 0 0 Z " fill="#01325E" transform="translate(712,401)"/>
<path d="M0 0 C2.06 0.44 2.06 0.44 4 1 C3.67 2.32 3.34 3.64 3 5 C-0.63 4.89 -4.25 4.76 -7.88 4.62 C-8.91 4.59 -9.94 4.56 -11 4.53 C-11.99 4.49 -12.98 4.45 -13.99 4.41 C-14.9 4.38 -15.81 4.35 -16.75 4.32 C-19 4 -19 4 -21 2 C-20.4 1.97 -19.8 1.95 -19.18 1.92 C-16.47 1.81 -13.77 1.69 -11.06 1.56 C-10.12 1.52 -9.17 1.48 -8.2 1.44 C-7.3 1.4 -6.4 1.36 -5.47 1.32 C-4.64 1.28 -3.81 1.24 -2.95 1.21 C-1 1.21 -1 1.21 0 0 Z " fill="#14D3F8" transform="translate(683,216)"/>
<path d="M0 0 C0.33 0 0.66 0 1 0 C1.25 1.18 1.5 2.35 1.75 3.56 C2.51 6.67 3.52 9.14 5.19 11.88 C6.08 13.42 6.08 13.42 7 15 C6.67 15.66 6.34 16.32 6 17 C4.02 14.03 2.04 11.06 0 8 C-0.66 11.96 -1.32 15.92 -2 20 C-3.32 20.33 -4.64 20.66 -6 21 C-4.56 13.78 -2.42 6.95 0 0 Z " fill="#083760" transform="translate(719,391)"/>
<path d="M0 0 C2.97 0 5.94 0 9 0 C9.66 1.32 10.32 2.64 11 4 C11.99 3.01 12.98 2.02 14 1 C12.68 5.62 10.79 9.1 8 13 C6.47 9.93 7.45 7.3 8 4 C5.36 4 2.72 4 0 4 C0 2.68 0 1.36 0 0 Z " fill="#11395A" transform="translate(692,324)"/>
<path d="M0 0 C-0.66 0.66 -1.32 1.32 -2 2 C0.64 2.33 3.28 2.66 6 3 C6 3.33 6 3.66 6 4 C2.48 4.06 -1.04 4.09 -4.56 4.12 C-6.05 4.15 -6.05 4.15 -7.56 4.18 C-13.13 4.21 -17.75 3.87 -23 2 C-23 1.67 -23 1.34 -23 1 C-15.31 -0.06 -7.75 -0.1 0 0 Z " fill="#064774" transform="translate(550,395)"/>
<path d="M0 0 C0.66 0 1.32 0 2 0 C2.34 0.64 2.68 1.29 3.03 1.95 C6.59 8.59 10.42 14.99 14.46 21.35 C16 24 16 24 16 26 C15.34 26 14.68 26 14 26 C12.49 23.83 12.49 23.83 10.74 20.82 C10.12 19.75 9.49 18.67 8.85 17.57 C8.2 16.43 7.55 15.3 6.88 14.12 C6.22 13 5.56 11.87 4.88 10.71 C0 2.27 0 2.27 0 0 Z " fill="#74D9EC" transform="translate(583,424)"/>
<path d="M0 0 C0.33 0 0.66 0 1 0 C1.44 5.93 0.52 9.89 -1.84 15.32 C-3.1 18.22 -4.18 21.15 -5.25 24.12 C-5.59 25.06 -5.92 25.99 -6.27 26.95 C-6.63 27.96 -6.63 27.96 -7 29 C-8.07 25.76 -7.92 23.88 -6.86 20.66 C-6.59 19.85 -6.33 19.03 -6.05 18.19 C-5.77 17.34 -5.48 16.5 -5.19 15.62 C-4.91 14.79 -4.64 13.95 -4.36 13.09 C-3.58 10.72 -2.79 8.36 -2 6 C-1.6 4.81 -1.21 3.62 -0.8 2.4 C-0.54 1.61 -0.27 0.82 0 0 Z " fill="#013868" transform="translate(728,362)"/>
<path d="M0 0 C7.1 1.02 14.08 2.1 21 4 C21 4.66 21 5.32 21 6 C15.31 6.29 12.88 6 8 3 C4.29 2.75 4.29 2.75 1 3 C1 3.99 1 4.98 1 6 C0.34 6 -0.32 6 -1 6 C-0.67 4.02 -0.34 2.04 0 0 Z " fill="#09CBE5" transform="translate(43,86)"/>
<path d="M0 0 C1.88 3.27 2.49 6.28 3 10 C2.67 9.34 2.34 8.68 2 8 C1.01 8 0.02 8 -1 8 C-0.94 8.89 -0.88 9.77 -0.81 10.69 C-1.02 14.36 -1.78 16.1 -4 19 C-4.66 19 -5.32 19 -6 19 C-4.32 12.51 -2.47 6.23 0 0 Z " fill="#013D73" transform="translate(744,312)"/>
<path d="M0 0 C0.62 1.81 0.62 1.81 1 4 C0.01 5.48 0.01 5.48 -1 7 C-1.86 10.6 -2.53 14.21 -3.22 17.85 C-4 21 -4 21 -6 23 C-5.9 22.29 -5.81 21.57 -5.71 20.84 C-5.03 14.95 -4.9 10.57 -7 5 C-6.01 5 -5.02 5 -4 5 C-3.01 4.67 -2.02 4.34 -1 4 C-0.27 1.98 -0.27 1.98 0 0 Z " fill="#02568D" transform="translate(131,4)"/>
<path d="M0 0 C0.66 0.99 1.32 1.98 2 3 C4.58 3.25 4.58 3.25 7 3 C5.68 3.33 4.36 3.66 3 4 C2.9 4.68 2.8 5.37 2.69 6.07 C1.86 9.58 0.48 12.56 -1.06 15.81 C-1.61 16.97 -2.16 18.14 -2.72 19.33 C-3.14 20.21 -3.57 21.09 -4 22 C-4.66 22 -5.32 22 -6 22 C-5.57 19.09 -4.99 16.98 -3.56 14.38 C-1.41 9.74 -0.76 5.03 0 0 Z " fill="#189FD2" transform="translate(129,11)"/>
<path d="M0 0 C2.15 3.23 2.2 4.28 2 8 C0.35 8.66 -1.3 9.32 -3 10 C-3 10.66 -3 11.32 -3 12 C-8.75 12.12 -8.75 12.12 -11 11 C-11 10.34 -11 9.68 -11 9 C-8.29 7.65 -5.99 7.93 -3 8 C-3 7.34 -3 6.68 -3 6 C-2.01 6 -1.02 6 0 6 C0 4.02 0 2.04 0 0 Z " fill="#035188" transform="translate(39,81)"/>
<path d="M0 0 C0 0.99 0 1.98 0 3 C5.88 4.96 12 4 18 3 C11.63 6.19 6.47 7.13 -0.66 5.33 C-2.8 4.61 -4.91 3.85 -7 3 C-4.5 -0 -4.26 0 0 0 Z " fill="#05A4D2" transform="translate(42,89)"/>
<path d="M0 0 C0.33 0.66 0.66 1.32 1 2 C-0.81 5.34 -2.74 8.57 -4.75 11.79 C-7.55 16.5 -8.52 19.53 -8 25 C-8.66 25 -9.32 25 -10 25 C-10 24.34 -10 23.68 -10 23 C-10.99 23.33 -11.98 23.66 -13 24 C-11.2 18.95 -8.55 14.41 -5.94 9.75 C-5.48 8.92 -5.02 8.09 -4.54 7.24 C-1.14 1.14 -1.14 1.14 0 0 Z " fill="#155677" transform="translate(16,88)"/>
<path d="M0 0 C0.99 0.5 0.99 0.5 2 1 C2 1.66 2 2.32 2 3 C2.66 3 3.32 3 4 3 C4.54 4.18 5.07 5.35 5.62 6.56 C7.81 10.97 10.65 14.43 14 18 C13.67 18.66 13.34 19.32 13 20 C11.12 19.31 11.12 19.31 9 18 C8.27 16.36 7.61 14.69 7 13 C4.65 8.82 4.65 8.82 1 6 C0.38 2.94 0.38 2.94 0 0 Z " fill="#002E5E" transform="translate(80,98)"/>
<path d="M0 0 C0.66 0 1.32 0 2 0 C0.65 6.5 -1.08 12.75 -3.12 19.06 C-3.4 19.93 -3.68 20.79 -3.96 21.69 C-4.64 23.79 -5.32 25.9 -6 28 C-7.8 22.59 -6.16 18.06 -3.83 13.04 C-2.12 8.84 -1.12 4.39 0 0 Z " fill="#003A6D" transform="translate(726,357)"/>
<path d="M0 0 C0.66 0 1.32 0 2 0 C2 0.66 2 1.32 2 2 C2.66 2 3.32 2 4 2 C4 2.66 4 3.32 4 4 C4.99 4 5.98 4 7 4 C7.33 3.01 7.66 2.02 8 1 C8.33 1.66 8.66 2.32 9 3 C7.97 4.95 7.97 4.95 6.5 7.25 C4.56 10.56 3.98 11.62 4.19 15.56 C4.46 16.37 4.72 17.17 5 18 C3.44 17 3.44 17 2 15 C2.26 13 2.52 10.99 2.87 9 C3.06 6.02 1.72 4.34 0 2 C0 1.34 0 0.68 0 0 Z " fill="#133D57" transform="translate(690,336)"/>
<path d="M0 0 C4.46 5.23 6.92 10.49 9 17 C9.65 18.67 10.32 20.34 11 22 C10.01 21.67 9.02 21.34 8 21 C8 20.01 8 19.02 8 18 C7.34 18 6.68 18 6 18 C5.82 17.34 5.64 16.67 5.45 15.99 C4.09 11.21 2.68 7.22 0 3 C0 2.01 0 1.02 0 0 Z " fill="#07345A" transform="translate(577,413)"/>
<path d="M0 0 C0.1 0.6 0.21 1.2 0.31 1.81 C0.82 4.05 0.82 4.05 2.44 5.38 C4.62 7.64 5.1 10.01 6 13 C6.65 14.67 7.32 16.34 8 18 C7.38 17.81 6.76 17.63 6.12 17.44 C3.96 16.76 3.96 16.76 2 18 C2 16.68 2 15.36 2 14 C2.66 14 3.32 14 4 14 C3.57 13.23 3.13 12.46 2.69 11.66 C2.13 10.66 1.57 9.66 1 8.62 C0.16 7.13 0.16 7.13 -0.69 5.6 C-2 3 -2 3 -2 1 C-1.34 0.67 -0.68 0.34 0 0 Z " fill="#133A53" transform="translate(698,355)"/>
<path d="M0 0 C0.33 0 0.66 0 1 0 C1.6 6.49 0.25 10.18 -3 15.8 C-4.34 18.1 -4.34 18.1 -3 21 C-3.99 21.33 -4.98 21.66 -6 22 C-5.52 17.84 -4.86 14.71 -3 11 C-2.6 9.47 -2.25 7.93 -1.94 6.38 C-1.46 4.02 -1.08 2.15 0 0 Z " fill="#022A59" transform="translate(126,32)"/>
<path d="M0 0 C9 10.67 9 10.67 9 15 C8.01 15 7.02 15 6 15 C5.57 14.03 5.13 13.06 4.69 12.06 C3.3 8.72 3.3 8.72 0 8 C0 5.33 0 2.67 0 0 Z " fill="#073254" transform="translate(588,435)"/>
<path d="M0 0 C1.65 0.22 3.3 0.44 4.95 0.71 C8.43 1.2 11.93 1.37 15.44 1.56 C16.17 1.61 16.9 1.65 17.65 1.69 C19.44 1.8 21.22 1.9 23 2 C23 2.33 23 2.66 23 3 C20.08 3.03 17.17 3.05 14.25 3.06 C13.42 3.07 12.6 3.08 11.75 3.09 C10.55 3.09 10.55 3.09 9.33 3.1 C8.23 3.11 8.23 3.11 7.11 3.11 C4.95 3 3.07 2.59 1 2 C0.67 3.32 0.34 4.64 0 6 C-0.38 4.34 -0.71 2.68 -1 1 C-0.67 0.67 -0.34 0.34 0 0 Z " fill="#04A0E2" transform="translate(725,282)"/>
<path d="M0 0 C0.66 0.33 1.32 0.66 2 1 C2.31 3.19 2.31 3.19 2 6 C-0.18 8.52 -2.01 10.51 -5 12 C-4.74 10.56 -4.47 9.12 -4.19 7.69 C-4.04 6.89 -3.89 6.09 -3.73 5.26 C-2.92 2.77 -1.98 1.68 0 0 Z " fill="#0A4A7F" transform="translate(102,67)"/>
<path d="M0 0 C1.65 0 3.3 0 5 0 C3.68 0.33 2.36 0.66 1 1 C1 3.97 1 6.94 1 10 C0.16 9.01 0.16 9.01 -0.69 8 C-2.84 5.75 -2.84 5.75 -5.75 5.75 C-6.49 5.83 -7.24 5.91 -8 6 C-7.67 4.68 -7.34 3.36 -7 2 C-3 2 -3 2 -1.25 3.5 C-0.84 4 -0.43 4.49 0 5 C0 3.35 0 1.7 0 0 Z " fill="#0469AB" transform="translate(139,13)"/>
<path d="M0 0 C2.83 2.69 5.25 5.49 7 9 C8.32 8.67 9.64 8.34 11 8 C10.67 10.31 10.34 12.62 10 15 C5.19 10.44 1.7 6.49 0 0 Z " fill="#14517F" transform="translate(613,408)"/>
<path d="M0 0 C0.66 0 1.32 0 2 0 C2 0.66 2 1.32 2 2 C2.99 1.67 3.98 1.34 5 1 C5 1.66 5 2.32 5 3 C5.99 3.33 6.98 3.66 8 4 C7.01 4 6.02 4 5 4 C5 5.32 5 6.64 5 8 C6.32 7.67 7.64 7.34 9 7 C8.67 7.99 8.34 8.98 8 10 C6.68 10 5.36 10 4 10 C4 9.01 4 8.02 4 7 C3.34 7 2.68 7 2 7 C1.34 4.69 0.68 2.38 0 0 Z " fill="#03386D" transform="translate(4,111)"/>
<path d="M0 0 C2.4 2.88 4.47 5.56 6 9 C5.01 9.99 4.02 10.98 3 12 C1.1 10.1 0.06 8.67 -0.2 5.95 C-0.19 3.97 -0.1 1.98 0 0 Z " fill="#053B69" transform="translate(0,98)"/>
<path d="M0 0 C1.2 0.25 2.39 0.5 3.62 0.75 C4.59 0.94 5.56 1.12 6.56 1.31 C7.24 1.46 7.92 1.6 8.62 1.75 C8.62 2.08 8.62 2.41 8.62 2.75 C-1.93 4.08 -1.93 4.08 -6.38 2.75 C-4.37 -0.19 -3.65 -0.27 0 0 Z " fill="#18F4FD" transform="translate(571.375,394.25)"/>
<path d="M0 0 C1.98 0.66 3.96 1.32 6 2 C6 2.66 6 3.32 6 4 C4.02 4.33 2.04 4.66 0 5 C0 6.98 0 8.96 0 11 C0.99 11.33 1.98 11.66 3 12 C2.67 12.99 2.34 13.98 2 15 C0.5 14 0.5 14 -1 12 C-1.27 7.8 -1.34 4.03 0 0 Z " fill="#0257A8" transform="translate(722,277)"/>
<path d="M0 0 C2.16 -0.29 2.16 -0.29 4.62 -0.19 C5.44 -0.16 6.26 -0.13 7.1 -0.11 C8.04 -0.05 8.04 -0.05 9 0 C9 0.66 9 1.32 9 2 C9.66 2.33 10.32 2.66 11 3 C6.71 3 2.42 3 -2 3 C-1.34 2.01 -0.68 1.02 0 0 Z " fill="#011D3F" transform="translate(26,76)"/>
<path d="M0 0 C1.14 3.4 0.84 5.77 0.06 9.25 C-0.13 10.14 -0.33 11.03 -0.53 11.95 C-0.68 12.63 -0.84 13.3 -1 14 C-2.65 14 -4.3 14 -6 14 C-5.67 13.01 -5.34 12.02 -5 11 C-4.34 11.33 -3.68 11.66 -3 12 C-2.87 11.39 -2.73 10.77 -2.6 10.14 C-2.42 9.33 -2.24 8.52 -2.06 7.69 C-1.89 6.89 -1.71 6.09 -1.54 5.26 C-1 3 -1 3 0 0 Z " fill="#043963" transform="translate(712,413)"/>
<path d="M0 0 C4.18 3.71 7.18 7.64 9 13 C8.67 13.66 8.34 14.32 8 15 C1.48 5.77 1.48 5.77 0 0 Z " fill="#32CBEF" transform="translate(708,252)"/>
<path d="M0 0 C1.32 0 2.64 0 4 0 C7.12 6.62 7.12 6.62 6 10 C4.99 8.71 4 7.42 3 6.12 C2.44 5.41 1.89 4.69 1.31 3.95 C0 2 0 2 0 0 Z " fill="#002F5A" transform="translate(693,401)"/>
<path d="M0 0 C2.88 0.19 2.88 0.19 6 1 C7.38 3.56 7.38 3.56 8 6 C10.31 6.33 12.62 6.66 15 7 C15 7.33 15 7.66 15 8 C12.03 8 9.06 8 6 8 C5.57 7.05 5.13 6.1 4.69 5.12 C3.21 1.8 3.21 1.8 0 0 Z " fill="#014F8B" transform="translate(132,2)"/>
<path d="M0 0 C0.33 0 0.66 0 1 0 C1.18 5.22 0.97 9.07 -1 14 C-1.66 14 -2.32 14 -3 14 C-2.4 9.13 -1.43 4.67 0 0 Z " fill="#012C57" transform="translate(628,406)"/>
<path d="M0 0 C0.66 0 1.32 0 2 0 C1.54 1.05 1.54 1.05 1.06 2.12 C-0.03 5.09 -0.56 7.88 -1 11 C-1.66 11 -2.32 11 -3 11 C-3 11.99 -3 12.98 -3 14 C-3.66 14 -4.32 14 -5 14 C-3.16 4.09 -3.16 4.09 0 0 Z " fill="#0B4471" transform="translate(489,417)"/>
<path d="M0 0 C0.33 0 0.66 0 1 0 C1 2.64 1 5.28 1 8 C0.34 8 -0.32 8 -1 8 C-1.12 8.64 -1.24 9.28 -1.37 9.93 C-1.53 10.76 -1.7 11.59 -1.88 12.44 C-2.04 13.26 -2.2 14.08 -2.37 14.93 C-2.58 15.62 -2.78 16.3 -3 17 C-3.66 17.33 -4.32 17.66 -5 18 C-1.92 5.33 -1.92 5.33 0 0 Z " fill="#023A71" transform="translate(113,72)"/>
<path d="M0 0 C0.66 0.33 1.32 0.66 2 1 C-0.97 5.95 -0.97 5.95 -4 11 C-5 7 -5 7 -3.69 3.81 C-2 1 -2 1 0 0 Z " fill="#043760" transform="translate(114,44)"/>
<path d="M0 0 C1.32 0 2.64 0 4 0 C4.1 6.15 4.1 6.15 4 8 C3 9 3 9 -0.56 9.06 C-1.7 9.04 -2.83 9.02 -4 9 C-4 8.67 -4 8.34 -4 8 C-2.02 7.67 -0.04 7.34 2 7 C2 6.01 2 5.02 2 4 C1.34 3.34 0.68 2.68 0 2 C0 1.34 0 0.68 0 0 Z " fill="#0377D9" transform="translate(684,213)"/>
<path d="M0 0 C1.65 0.99 3.3 1.98 5 3 C5.33 2.34 5.66 1.68 6 1 C5.34 4.3 4.68 7.6 4 11 C3.67 11 3.34 11 3 11 C2.67 8.69 2.34 6.38 2 4 C1.34 4 0.68 4 0 4 C0 2.68 0 1.36 0 0 Z " fill="#0A4772" transform="translate(713,385)"/>
<path d="M0 0 C0.66 0 1.32 0 2 0 C0.43 4.31 -1.68 8.06 -4 12 C-5 9 -5 9 -4 6 C-3.34 6 -2.68 6 -2 6 C-1.78 5.07 -1.78 5.07 -1.56 4.12 C-1 2 -1 2 0 0 Z " fill="#023361" transform="translate(709,168)"/>
<path d="M0 0 C4.83 -0.08 9.24 0.05 14 1 C10.6 3.09 7.95 3.18 4 3 C4 2.34 4 1.68 4 1 C2.68 0.67 1.36 0.34 0 0 Z " fill="#0E9FCC" transform="translate(60,89)"/>
<path d="M0 0 C0.66 0.33 1.32 0.66 2 1 C1.01 5.62 0.02 10.24 -1 15 C-1.33 15 -1.66 15 -2 15 C-1.86 12.69 -1.71 10.37 -1.56 8.06 C-1.48 6.77 -1.4 5.49 -1.32 4.16 C-1 1 -1 1 0 0 Z " fill="#012C59" transform="translate(632,379)"/>
<path d="M0 0 C0.99 0.33 1.98 0.66 3 1 C3.35 2.33 3.69 3.66 4 5 C4.8 5.74 4.8 5.74 5.62 6.5 C6.08 6.99 6.53 7.49 7 8 C6.59 10.09 6.59 10.09 6 12 C4.99 10.38 4 8.75 3 7.12 C2.44 6.22 1.89 5.32 1.31 4.38 C0 2 0 2 0 0 Z " fill="#144864" transform="translate(4,44)"/>
<path d="M0 0 C0.99 0 1.98 0 3 0 C3.33 1.98 3.66 3.96 4 6 C2.68 6 1.36 6 0 6 C0 4.02 0 2.04 0 0 Z " fill="#0963B6" transform="translate(28,54)"/>
<path d="M0 0 C3.29 1.13 4 1.99 5.75 5.12 C6.16 6.07 6.58 7.02 7 8 C6.34 8.66 5.68 9.32 5 10 C4.16 8.71 3.33 7.42 2.5 6.12 C2.04 5.41 1.57 4.69 1.09 3.95 C0 2 0 2 0 0 Z " fill="#0A385F" transform="translate(588,430)"/>
<path d="M0 0 C0.66 0 1.32 0 2 0 C0.75 3.46 -0.68 6.15 -3 9 C-3.33 7.68 -3.66 6.36 -4 5 C-3.34 5 -2.68 5 -2 5 C-2 4.01 -2 3.02 -2 2 C-1.34 2 -0.68 2 0 2 C0 1.34 0 0.68 0 0 Z " fill="#052C4A" transform="translate(483,424)"/>
<path d="M0 0 C2.96 3.47 5.08 6.87 7 11 C6.01 11.5 6.01 11.5 5 12 C4.16 10.57 3.33 9.13 2.5 7.69 C1.8 6.49 1.8 6.49 1.09 5.26 C0 3 0 3 0 0 Z " fill="#145A8C" transform="translate(577,413)"/>
<path d="M0 0 C0 1.32 0 2.64 0 4 C-1.98 4 -3.96 4 -6 4 C-6 3.01 -6 2.02 -6 1 C-3 0 -3 0 0 0 Z " fill="#10F6FC" transform="translate(796,393)"/>
<path d="M0 0 C1.32 0.66 2.64 1.32 4 2 C4 2.66 4 3.32 4 4 C0.04 3.67 -3.92 3.34 -8 3 C-8 2.67 -8 2.34 -8 2 C-5.36 2 -2.72 2 0 2 C0 1.34 0 0.68 0 0 Z " fill="#0068AB" transform="translate(572,390)"/>
<path d="M0 0 C-0.99 1.49 -0.99 1.49 -2 3 C-1.01 3.66 -0.02 4.32 1 5 C-5.75 4.25 -5.75 4.25 -8 2 C-4.77 -0.15 -3.72 -0.2 0 0 Z " fill="#09518F" transform="translate(740,279)"/>
<path d="M0 0 C0.66 0.66 1.32 1.32 2 2 C0.35 4.97 -1.3 7.94 -3 11 C-4 8 -4 8 -3.22 5.96 C-2.84 5.25 -2.46 4.54 -2.06 3.81 C-1.68 3.1 -1.3 2.38 -0.91 1.64 C-0.61 1.1 -0.31 0.56 0 0 Z " fill="#124A88" transform="translate(701,185)"/>
<path d="M0 0 C2.97 0 5.94 0 9 0 C8.34 0.66 7.68 1.32 7 2 C6.01 2 5.02 2 4 2 C3.67 2.99 3.34 3.98 3 5 C1.5 3.62 1.5 3.62 0 2 C0 1.34 0 0.68 0 0 Z " fill="#036CBB" transform="translate(44,95)"/>
<path d="M0 0 C0.69 1.69 0.69 1.69 1 4 C-0.31 6.75 -0.31 6.75 -2 9 C-2.66 9 -3.32 9 -4 9 C-2.94 5.6 -1.99 2.99 0 0 Z " fill="#073963" transform="translate(111,55)"/>
<path d="M0 0 C0.33 0 0.66 0 1 0 C1.12 6.62 1.12 6.62 0 10 C-0.66 10 -1.32 10 -2 10 C-1.54 6.53 -1.11 3.33 0 0 Z " fill="#023D6E" transform="translate(731,352)"/>
<path d="M0 0 C0.99 0.33 1.98 0.66 3 1 C4.69 4.56 4.69 4.56 6 8 C5.01 8.5 5.01 8.5 4 9 C3.33 7.69 2.66 6.38 2 5.06 C1.63 4.33 1.26 3.6 0.88 2.85 C0 1 0 1 0 0 Z " fill="#125C9B" transform="translate(703,244)"/>
<path d="M0 0 C0.69 1.69 0.69 1.69 1 4 C-0.31 6.75 -0.31 6.75 -2 9 C-2.66 9 -3.32 9 -4 9 C-2.94 5.6 -1.99 2.99 0 0 Z " fill="#00305F" transform="translate(709,175)"/>
<path d="M0 0 C1.65 0 3.3 0 5 0 C5.33 0.99 5.66 1.98 6 3 C4.35 3.33 2.7 3.66 1 4 C0.67 2.68 0.34 1.36 0 0 Z " fill="#11E4FC" transform="translate(132,10)"/>
<path d="M0 0 C4.43 5.14 4.43 5.14 5 9 C4.34 9 3.68 9 3 9 C0.57 5.63 0 4.27 0 0 Z " fill="#3BC0E8" transform="translate(594,441)"/>
<path d="M0 0 C0.99 0.33 1.98 0.66 3 1 C3 1.99 3 2.98 3 4 C1.35 4 -0.3 4 -2 4 C-2 3.01 -2 2.02 -2 1 C-1.34 0.67 -0.68 0.34 0 0 Z " fill="#0781BE" transform="translate(38,89)"/>
</svg>
